<svg width="36" height="50" viewBox="0 0 36 50" xmlns="http://www.w3.org/2000/svg">
    <g fill="none" fill-rule="evenodd">
        <path d="m.177 39.565.226-.442 14.002-26.568L8.183.79c-.517-.97-1.83-.723-2 .364L.177 39.564zM18.944 20.996l4.515-4.625-4.515-8.598c-.429-.816-1.47-.901-1.895-.083l-2.495 4.807-.075.246 4.465 8.253z" fill="#FFA50E"/>
        <path fill="#F6820C" fill-rule="nonzero" d="m0 39.884.136-.136.492-.2 18.107-18.04.23-.625-4.517-8.607z"/>
        <path d="m35.847 39.766-4.644-28.601c-.145-.895-1.065-1.266-1.706-.624L.182 39.828l16.114 9.007c1.022.57 2.266.57 3.289 0l16.262-9.07v.001z" fill="#FCCA3F" fill-rule="nonzero"/>
    </g>
</svg>
