<svg width="44" height="48" viewBox="0 0 44 48" xmlns="http://www.w3.org/2000/svg">
    <g fill-rule="nonzero" fill="none">
        <path d="m43.5 0-6.095 18.273a5.377 5.377 0 0 1 3.748 7.937c1.259 1.903 1.79 4.207 1.387 6.52-.427 2.514-1.972 4.719-4.244 6.034-.891.516-1.872.887-3.01 1.17l-.198.048-.171.04-.17.038-.255.054-.13.027-.132.025-.136.026-.139.025-.193.034-.1.017-.264.043-.345.054-.38.058-.576.084-.636.093-.415.062-.316.05-.235.038-.222.038-.16.028-.153.028-.148.028-.097.019-.142.029-.185.04-.137.03-.09.02-.158.038-.196.048-.127.033-.126.033-.19.052-.063.017-.251.073-.126.037-.126.038a20.36 20.36 0 0 0-.063.02l-.126.04-.127.04-.127.043-.192.065-.128.044-.13.046-.13.047-.132.049-.199.075-.134.051-.136.053-.137.055-.139.055-.14.058-.142.058-.217.091-.221.095-.15.065-.23.101-.234.105-.24.109-.246.113-.253.117-.26.122-.265.126-.274.13-.281.136-.387.189-.506.248-.422.208-1.553.77-.763.373-.449.216-.304.143-.255.119-.155.071-.216.098-.156.07-.248.11-.173.075c-1.556.678-2.915 1.153-4.218 1.447-3.193.72-6.003.31-8.607-1.492C1.071 43.859-.029 39.888.73 35.349l.012-.073.025-.144.027-.143.028-.142.029-.142.015-.07.03-.14.033-.14.017-.07.035-.14c.035-.14.072-.28.112-.42l.04-.14.043-.14.044-.14.022-.071.046-.142.024-.072.049-.143.05-.144.053-.146.027-.073.083-.222.058-.15.03-.076.06-.153.032-.077.064-.155.066-.158.068-.16.07-.163.036-.082.073-.166.076-.169.077-.172.08-.174.083-.178.084-.181.132-.278.137-.286.782-1.62.239-.436a5.375 5.375 0 1 1 5.742 1.086l-.044.106-.313.743c-.85 2.005-.037 4.327 1.889 5.568l.051.033.088-.035c1.886-.754 3.647-1.883 5.222-3.347l.091-.085a18.562 18.562 0 0 0 2.67-3.134 5.375 5.375 0 0 1 1.44-10.12l-1.912-5.728L14.558 0H43.5zM29.035 12.547l-3.051 6.272-.506 1.04a5.357 5.357 0 0 1 1.484 3.708c0 .554-.084 1.088-.24 1.59h4.613a5.374 5.374 0 0 1-.239-1.59c0-1.431.56-2.732 1.472-3.695l-3.533-7.325z" fill="#B81324"/>
        <path d="m43.5 0-6.095 18.273a5.377 5.377 0 0 1 3.748 7.937c1.259 1.903 1.79 4.207 1.387 6.52-.427 2.514-1.972 4.719-4.244 6.034-.891.516-1.872.887-3.01 1.17l-.198.048-.171.04-.17.038-.255.054-.13.027-.132.025-.136.026-.139.025-.193.034-.1.017-.264.043-.345.054-.38.058-.576.084-.636.093-.415.062-.316.05-.235.038-.222.038-.16.028-.153.028-.148.028-.097.019-.142.029-.185.04-.137.03-.09.02-.158.038-.196.048-.127.033-.126.033-.19.052-.063.017-.251.073-.126.037-.126.038a20.36 20.36 0 0 0-.063.02l-.126.04-.127.04-.127.043-.192.065-.128.044-.13.046-.13.047-.132.049-.199.075-.134.051-.136.053-.137.055-.139.055-.14.058-.142.058-.217.091-.221.095-.15.065-.23.101-.234.105-.24.109-.246.113-.253.117-.26.122-.265.126-.274.13-.281.136-.387.189-.506.248-.422.208-1.553.77-.763.373-.449.216-.304.143-.255.119-.155.071-.216.098-.156.07-.248.11-.173.075c-1.556.678-2.915 1.153-4.218 1.447-3.193.72-6.003.31-8.607-1.492C1.071 43.859-.029 39.888.73 35.349l.012-.073.025-.144.027-.143.028-.142.029-.142.015-.07.03-.14.033-.14.017-.07.035-.14c.035-.14.072-.28.112-.42l.04-.14.043-.14.044-.14.022-.071.046-.142.024-.072.049-.143.05-.144.053-.146.027-.073.083-.222.058-.15.03-.076.06-.153.032-.077.064-.155.066-.158.068-.16.07-.163.036-.082.073-.166.076-.169.077-.172.08-.174.083-.178.084-.181.132-.278.137-.286.782-1.62.239-.436a5.375 5.375 0 1 1 5.742 1.086l-.044.106-.313.743c-.85 2.005-.037 4.327 1.889 5.568l.051.033.088-.035c1.886-.754 3.647-1.883 5.222-3.347l.091-.085a18.562 18.562 0 0 0 2.67-3.134 5.375 5.375 0 0 1 1.44-10.12l-1.912-5.728L14.558 0H43.5zM29.035 12.547l-3.051 6.272-.506 1.04a5.375 5.375 0 0 1-4.03 9.081 20.525 20.525 0 0 1-3.41 4.17c-1.933 1.821-4.133 3.198-6.505 4.064l-.115.041-.442.158-.419-.214c-3.111-1.594-4.607-5.096-3.5-8.237a5.333 5.333 0 0 1-1.405-.317l-.241.503-.648 1.341-.128.266-.122.258-.078.168-.077.164-.11.242-.071.157-.069.154-.066.151-.065.15-.063.146-.06.144-.059.142-.057.14-.054.138-.053.136-.052.134-.049.133a17.39 17.39 0 0 0-.024.066l-.047.13a16.18 16.18 0 0 0-.023.065l-.044.129-.043.127-.04.127-.04.125-.02.063-.036.124-.018.062-.035.123-.034.123-.032.123-.03.123-.03.122-.014.061-.027.123-.026.123-.025.123-.024.124-.011.062-.022.124-.01.063c-.634 3.79.232 6.92 2.698 8.639 2.067 1.432 4.257 1.75 6.89 1.157 1.12-.253 2.32-.669 3.71-1.269l.283-.123.16-.07.169-.076.238-.107.273-.126.424-.2.482-.231.715-.35.964-.477.808-.4.324-.16.316-.155.407-.199.392-.189.191-.091.28-.133.274-.129.266-.124.26-.12.254-.115.166-.074.245-.109.24-.104.156-.068.232-.098.152-.063.15-.062.149-.06.147-.06.073-.028.145-.057.143-.055.143-.054.211-.079.14-.05.14-.05.138-.048.138-.047.137-.046.137-.045.137-.044.136-.043.068-.02.273-.082.273-.079.137-.037.138-.038.138-.036.14-.036.19-.047.25-.06.15-.033.1-.022.153-.033.155-.031.158-.031.107-.02.222-.041.172-.03.18-.03.25-.041.334-.053.288-.043 1.154-.17.326-.049.311-.048.15-.024.22-.036.21-.036.138-.024.2-.036.128-.024.189-.036.122-.024.12-.025.116-.024.115-.025.112-.025.11-.026.106-.025.106-.026.103-.027.05-.013.1-.027.099-.027.096-.028.095-.029.093-.028.092-.03.045-.015.09-.03.043-.015.088-.032.043-.015.086-.033.085-.033.083-.033.083-.035.082-.035.081-.036.08-.036.041-.02.08-.037.04-.02.158-.08.157-.083.079-.044.078-.044.04-.023c1.716-.993 2.872-2.643 3.19-4.52a6.783 6.783 0 0 0-.756-4.453 5.375 5.375 0 0 1-7.073-8.035l-3.533-7.326zm-7.448 7.757a3.263 3.263 0 1 0 0 6.526 3.263 3.263 0 0 0 0-6.526zm14.884 0a3.263 3.263 0 1 0 0 6.526 3.263 3.263 0 0 0 0-6.526zm-28.942 0a3.263 3.263 0 1 0 0 6.526 3.263 3.263 0 0 0 0-6.526zm32.946-18.1H17.583l5.4 16.171c.234.063.463.142.684.235l5.377-11.053 5.332 11.059c.227-.096.461-.177.703-.242l5.396-16.17z" fill="#F2F2F2"/>
    </g>
</svg>
