<?xml version="1.0" encoding="UTF-8"?>
<svg xmlns="http://www.w3.org/2000/svg" xmlns:xlink="http://www.w3.org/1999/xlink" width="64pt" height="64" viewBox="0 0 64 64" version="1.1">
<g id="surface1">
<path style=" stroke:none;fill-rule:nonzero;fill:rgb(34.901961%,58.823529%,21.176471%);fill-opacity:1;" d="M 29.453125 8.320312 L 30.839844 10.925781 C 31.152344 11.40625 31.488281 11.832031 31.886719 12.226562 C 33.054688 13.378906 34.140625 14.609375 35.144531 15.910156 C 37.492188 18.996094 39.078125 22.421875 40.210938 26.128906 C 40.890625 28.390625 41.257812 30.714844 41.285156 33.0625 C 41.398438 40.082031 38.992188 46.113281 34.140625 51.121094 C 33.351562 51.917969 32.496094 52.644531 31.589844 53.300781 C 31.109375 53.300781 30.882812 52.933594 30.683594 52.59375 C 30.320312 51.964844 30.082031 51.273438 29.976562 50.554688 C 29.804688 49.707031 29.691406 48.855469 29.746094 47.980469 L 29.746094 47.582031 C 29.707031 47.5 29.285156 8.519531 29.453125 8.320312 Z M 29.453125 8.320312 "/>
<path style=" stroke:none;fill-rule:nonzero;fill:rgb(42.352941%,67.45098%,28.235294%);fill-opacity:1;" d="M 29.453125 8.234375 C 29.398438 8.121094 29.339844 8.207031 29.28125 8.261719 C 29.308594 8.832031 29.113281 9.335938 28.800781 9.820312 C 28.460938 10.300781 28.007812 10.671875 27.554688 11.066406 C 25.039062 13.246094 23.058594 15.878906 21.472656 18.824219 C 19.359375 22.785156 18.269531 27.035156 17.960938 31.503906 C 17.820312 33.117188 18.472656 38.808594 18.980469 40.449219 C 20.367188 44.808594 22.859375 48.460938 26.085938 51.632812 C 26.878906 52.394531 27.726562 53.105469 28.605469 53.785156 C 28.859375 53.785156 28.886719 53.558594 28.945312 53.386719 C 29.058594 53.027344 29.140625 52.65625 29.199219 52.285156 L 29.769531 48.039062 Z M 29.453125 8.234375 "/>
<path style=" stroke:none;fill-rule:nonzero;fill:rgb(76.078431%,74.901961%,74.901961%);fill-opacity:1;" d="M 30.839844 55.027344 C 30.898438 54.378906 31.210938 53.839844 31.546875 53.300781 C 31.207031 53.160156 30.953125 52.878906 30.757812 52.566406 C 30.585938 52.269531 30.445312 51.957031 30.332031 51.628906 C 29.9375 50.441406 29.851562 49.195312 29.738281 47.980469 L 29.738281 47.242188 C 29.597656 47.359375 29.570312 48.320312 29.570312 48.460938 C 29.484375 49.746094 29.316406 51.023438 29.058594 52.285156 C 28.972656 52.792969 28.917969 53.300781 28.605469 53.753906 C 28.605469 53.8125 28.605469 53.867188 28.632812 53.953125 C 29.140625 55.453125 29.28125 56.980469 29.367188 58.539062 L 29.367188 59.109375 C 29.367188 59.789062 29.339844 59.644531 29.902344 59.871094 C 30.128906 59.957031 30.382812 59.984375 30.613281 60.152344 C 30.78125 60.152344 30.808594 60.011719 30.808594 59.898438 L 30.726562 58.964844 L 30.726562 56.359375 C 30.699219 55.90625 30.78125 55.453125 30.839844 55.027344 Z M 30.839844 55.027344 "/>
</g>
</svg>
