<?xml version="1.0" encoding="UTF-8"?>
<svg xmlns="http://www.w3.org/2000/svg" xmlns:xlink="http://www.w3.org/1999/xlink" width="58pt" height="63pt" viewBox="0 0 58 63" version="1.1">
<g id="surface1">
<path style=" stroke:none;fill-rule:nonzero;fill:rgb(54.901961%,78.431373%,29.411765%);fill-opacity:1;" d="M 26.390625 0.800781 C 27.964844 -0.0898438 30.019531 -0.09375 31.597656 0.800781 C 39.523438 5.21875 47.453125 9.628906 55.378906 14.046875 C 56.867188 14.875 57.867188 16.511719 57.851562 18.207031 L 57.851562 44.785156 C 57.863281 46.550781 56.765625 48.222656 55.191406 49.035156 C 47.292969 53.425781 39.394531 57.824219 31.496094 62.21875 C 29.886719 63.125 27.792969 63.054688 26.230469 62.074219 C 23.863281 60.71875 21.492188 59.371094 19.121094 58.019531 C 18.636719 57.734375 18.09375 57.507812 17.75 57.046875 C 18.050781 56.644531 18.59375 56.59375 19.03125 56.417969 C 20.019531 56.109375 20.929688 55.609375 21.835938 55.128906 C 22.066406 54.972656 22.347656 55.03125 22.566406 55.171875 C 24.59375 56.316406 26.601562 57.496094 28.632812 58.628906 C 29.066406 58.875 29.503906 58.546875 29.875 58.34375 C 37.628906 54.023438 45.390625 49.71875 53.144531 45.394531 C 53.429688 45.257812 53.589844 44.957031 53.566406 44.648438 C 53.570312 35.878906 53.566406 27.109375 53.570312 18.34375 C 53.601562 17.992188 53.394531 17.667969 53.070312 17.523438 C 45.199219 13.148438 37.328125 8.769531 29.457031 4.394531 C 29.179688 4.207031 28.808594 4.207031 28.53125 4.394531 C 20.65625 8.769531 12.789062 13.152344 4.917969 17.527344 C 4.597656 17.671875 4.378906 17.988281 4.417969 18.34375 C 4.421875 27.109375 4.417969 35.878906 4.417969 44.648438 C 4.390625 44.957031 4.5625 45.253906 4.847656 45.386719 C 6.949219 46.5625 9.050781 47.726562 11.152344 48.898438 C 12.335938 49.527344 13.792969 49.902344 15.097656 49.417969 C 16.246094 49.011719 17.054688 47.851562 17.03125 46.648438 C 17.042969 37.929688 17.027344 29.214844 17.039062 20.5 C 17.011719 20.113281 17.382812 19.792969 17.765625 19.828125 C 18.773438 19.820312 19.785156 19.816406 20.792969 19.832031 C 21.214844 19.820312 21.507812 20.238281 21.453125 20.628906 C 21.449219 29.398438 21.464844 38.171875 21.445312 46.941406 C 21.449219 49.28125 20.476562 51.824219 18.285156 52.96875 C 15.582031 54.347656 12.246094 54.054688 9.574219 52.730469 C 7.265625 51.59375 5.0625 50.253906 2.792969 49.035156 C 1.214844 48.230469 0.125 46.546875 0.136719 44.785156 L 0.136719 18.207031 C 0.121094 16.476562 1.15625 14.8125 2.695312 13.996094 C 10.59375 9.597656 18.492188 5.199219 26.390625 0.800781 Z M 26.390625 0.800781 "/>
<path style=" stroke:none;fill-rule:nonzero;fill:rgb(54.901961%,78.431373%,29.411765%);fill-opacity:1;" d="M 33.28125 19.210938 C 36.726562 18.992188 40.414062 19.082031 43.515625 20.753906 C 45.914062 22.039062 47.246094 24.730469 47.289062 27.359375 C 47.222656 27.714844 46.84375 27.910156 46.503906 27.886719 C 45.503906 27.886719 44.503906 27.898438 43.503906 27.878906 C 43.078125 27.894531 42.832031 27.511719 42.777344 27.140625 C 42.492188 25.882812 41.796875 24.636719 40.59375 24.027344 C 38.75 23.117188 36.613281 23.164062 34.605469 23.183594 C 33.136719 23.257812 31.558594 23.386719 30.316406 24.234375 C 29.359375 24.882812 29.070312 26.183594 29.410156 27.230469 C 29.730469 27.984375 30.613281 28.226562 31.332031 28.449219 C 35.484375 29.519531 39.886719 29.414062 43.957031 30.824219 C 45.644531 31.398438 47.292969 32.515625 47.871094 34.257812 C 48.625 36.589844 48.296875 39.378906 46.613281 41.253906 C 45.246094 42.796875 43.257812 43.632812 41.273438 44.089844 C 38.636719 44.671875 35.898438 44.683594 33.21875 44.425781 C 30.699219 44.144531 28.078125 43.492188 26.132812 41.796875 C 24.472656 40.375 23.660156 38.15625 23.738281 36.011719 C 23.757812 35.652344 24.125 35.398438 24.476562 35.429688 C 25.480469 35.421875 26.488281 35.417969 27.496094 35.429688 C 27.898438 35.402344 28.195312 35.746094 28.214844 36.117188 C 28.402344 37.316406 28.859375 38.574219 29.917969 39.285156 C 31.964844 40.589844 34.53125 40.5 36.875 40.535156 C 38.816406 40.449219 40.992188 40.425781 42.578125 39.160156 C 43.414062 38.4375 43.660156 37.230469 43.433594 36.191406 C 43.191406 35.316406 42.257812 34.90625 41.460938 34.640625 C 37.363281 33.359375 32.914062 33.824219 28.855469 32.378906 C 27.207031 31.804688 25.613281 30.71875 24.980469 29.050781 C 24.097656 26.6875 24.5 23.761719 26.359375 21.953125 C 28.175781 20.152344 30.792969 19.457031 33.28125 19.210938 Z M 33.28125 19.210938 "/>
</g>
</svg>
