<?xml version="1.0" encoding="UTF-8"?>
<svg xmlns="http://www.w3.org/2000/svg" xmlns:xlink="http://www.w3.org/1999/xlink" width="118pt" height="64" viewBox="0 0 118 64" version="1.1">
<defs>
<clipPath id="clip1">
  <path d="M 1 1 L 117 1 L 117 63 L 1 63 Z M 1 1 "/>
</clipPath>
<clipPath id="clip2">
  <path d="M 1.660156 31.964844 C 1.660156 48.699219 27.339844 62.265625 59.015625 62.265625 C 90.695312 62.265625 116.375 48.699219 116.375 31.964844 C 116.375 15.234375 90.695312 1.667969 59.015625 1.667969 C 27.339844 1.667969 1.660156 15.234375 1.660156 31.964844 "/>
</clipPath>
<radialGradient id="radial0" gradientUnits="userSpaceOnUse" cx="0" cy="0" fx="0" fy="0" r="1" gradientTransform="matrix(75.317917,0,0,75.63706,36.097051,12.31914)">
<stop offset="0" style="stop-color:rgb(68.235294%,69.803922%,83.529412%);stop-opacity:1;"/>
<stop offset="0.3" style="stop-color:rgb(68.235294%,69.803922%,83.529412%);stop-opacity:1;"/>
<stop offset="0.75" style="stop-color:rgb(28.235294%,29.803922%,53.72549%);stop-opacity:1;"/>
<stop offset="1" style="stop-color:rgb(28.235294%,29.803922%,53.72549%);stop-opacity:1;"/>
</radialGradient>
</defs>
<g id="surface1">
<g clip-path="url(#clip1)" clip-rule="nonzero">
<g clip-path="url(#clip2)" clip-rule="nonzero">
<path style=" stroke:none;fill-rule:nonzero;fill:url(#radial0);" d="M 1.660156 31.964844 C 1.660156 48.699219 27.339844 62.265625 59.015625 62.265625 C 90.695312 62.265625 116.375 48.699219 116.375 31.964844 C 116.375 15.234375 90.695312 1.667969 59.015625 1.667969 C 27.339844 1.667969 1.660156 15.234375 1.660156 31.964844 "/>
</g>
</g>
<path style=" stroke:none;fill-rule:nonzero;fill:rgb(46.666667%,48.235294%,70.196078%);fill-opacity:1;" d="M 59.015625 60.015625 C 89.457031 60.015625 114.132812 47.457031 114.132812 31.964844 C 114.132812 16.476562 89.457031 3.917969 59.015625 3.917969 C 28.578125 3.917969 3.898438 16.476562 3.898438 31.964844 C 3.898438 47.457031 28.578125 60.015625 59.015625 60.015625 "/>
<path style=" stroke:none;fill-rule:nonzero;fill:rgb(0%,0%,0%);fill-opacity:1;" d="M 32.820312 35.445312 C 35.324219 35.445312 37.195312 34.980469 38.375 34.066406 C 39.546875 33.164062 40.351562 31.597656 40.777344 29.410156 C 41.171875 27.367188 41.019531 25.941406 40.328125 25.171875 C 39.625 24.382812 38.09375 23.984375 35.789062 23.984375 L 31.789062 23.984375 L 29.570312 35.445312 Z M 19.738281 49.558594 C 19.554688 49.558594 19.378906 49.476562 19.257812 49.332031 C 19.140625 49.1875 19.09375 48.996094 19.128906 48.816406 L 25.003906 18.449219 C 25.0625 18.15625 25.320312 17.945312 25.617188 17.945312 L 38.28125 17.945312 C 42.261719 17.945312 45.226562 19.03125 47.089844 21.171875 C 48.960938 23.324219 49.539062 26.332031 48.804688 30.113281 C 48.507812 31.652344 47.996094 33.082031 47.285156 34.363281 C 46.570312 35.648438 45.628906 36.832031 44.480469 37.890625 C 43.109375 39.179688 41.554688 40.117188 39.867188 40.667969 C 38.207031 41.210938 36.074219 41.484375 33.53125 41.484375 L 28.402344 41.484375 L 26.9375 49.054688 C 26.878906 49.347656 26.625 49.558594 26.328125 49.558594 Z M 19.738281 49.558594 "/>
<path style=" stroke:none;fill-rule:nonzero;fill:rgb(100%,100%,100%);fill-opacity:1;" d="M 32.300781 24.609375 L 35.789062 24.609375 C 38.574219 24.609375 39.539062 25.222656 39.867188 25.589844 C 40.414062 26.195312 40.515625 27.476562 40.164062 29.292969 C 39.773438 31.324219 39.042969 32.761719 37.996094 33.570312 C 36.925781 34.398438 35.183594 34.820312 32.824219 34.820312 L 30.324219 34.820312 Z M 38.28125 17.320312 L 25.617188 17.320312 C 25.019531 17.320312 24.507812 17.742188 24.394531 18.332031 L 18.519531 48.695312 C 18.445312 49.0625 18.542969 49.441406 18.777344 49.730469 C 19.015625 50.015625 19.367188 50.183594 19.738281 50.183594 L 26.328125 50.183594 C 26.921875 50.183594 27.433594 49.757812 27.546875 49.171875 L 28.914062 42.109375 L 33.53125 42.109375 C 36.140625 42.109375 38.339844 41.824219 40.0625 41.261719 C 41.832031 40.683594 43.464844 39.703125 44.90625 38.347656 C 46.097656 37.246094 47.082031 36.007812 47.828125 34.667969 C 48.570312 33.332031 49.105469 31.835938 49.417969 30.230469 C 50.1875 26.25 49.5625 23.066406 47.558594 20.757812 C 45.570312 18.476562 42.449219 17.320312 38.28125 17.320312 M 28.816406 36.070312 L 32.824219 36.070312 C 35.476562 36.070312 37.457031 35.566406 38.753906 34.5625 C 40.054688 33.558594 40.933594 31.878906 41.386719 29.53125 C 41.824219 27.273438 41.625 25.679688 40.792969 24.753906 C 39.957031 23.824219 38.289062 23.359375 35.789062 23.359375 L 31.273438 23.359375 L 28.816406 36.070312 M 38.28125 18.570312 C 42.09375 18.570312 44.871094 19.574219 46.621094 21.582031 C 48.367188 23.589844 48.894531 26.394531 48.195312 29.992188 C 47.910156 31.476562 47.421875 32.832031 46.742188 34.058594 C 46.054688 35.289062 45.164062 36.414062 44.058594 37.429688 C 42.746094 38.667969 41.285156 39.546875 39.675781 40.074219 C 38.066406 40.597656 36.019531 40.859375 33.53125 40.859375 L 27.886719 40.859375 L 26.328125 48.933594 L 19.738281 48.933594 L 25.617188 18.570312 L 38.28125 18.570312 "/>
<path style=" stroke:none;fill-rule:nonzero;fill:rgb(0%,0%,0%);fill-opacity:1;" d="M 63.910156 41.484375 C 63.722656 41.484375 63.546875 41.402344 63.429688 41.257812 C 63.308594 41.113281 63.261719 40.925781 63.296875 40.742188 L 65.898438 27.304688 C 66.144531 26.027344 66.082031 25.113281 65.726562 24.722656 C 65.507812 24.488281 64.847656 24.089844 62.902344 24.089844 L 58.195312 24.089844 L 54.925781 40.980469 C 54.867188 41.273438 54.613281 41.484375 54.3125 41.484375 L 47.78125 41.484375 C 47.59375 41.484375 47.417969 41.402344 47.300781 41.257812 C 47.179688 41.113281 47.132812 40.925781 47.167969 40.742188 L 53.046875 10.378906 C 53.101562 10.082031 53.359375 9.871094 53.65625 9.871094 L 60.191406 9.871094 C 60.375 9.871094 60.554688 9.953125 60.671875 10.097656 C 60.789062 10.242188 60.835938 10.433594 60.800781 10.617188 L 59.382812 17.945312 L 64.449219 17.945312 C 68.308594 17.945312 70.925781 18.628906 72.453125 20.035156 C 74.003906 21.46875 74.488281 23.761719 73.894531 26.851562 L 71.160156 40.980469 C 71.101562 41.273438 70.84375 41.484375 70.546875 41.484375 Z M 63.910156 41.484375 "/>
<path style=" stroke:none;fill-rule:nonzero;fill:rgb(100%,100%,100%);fill-opacity:1;" d="M 60.191406 9.246094 L 53.65625 9.246094 C 53.058594 9.246094 52.546875 9.671875 52.433594 10.257812 L 46.558594 40.621094 C 46.488281 40.988281 46.582031 41.367188 46.820312 41.65625 C 47.054688 41.945312 47.40625 42.109375 47.78125 42.109375 L 54.3125 42.109375 C 54.910156 42.109375 55.421875 41.6875 55.535156 41.097656 L 58.707031 24.714844 L 62.902344 24.714844 C 64.84375 24.714844 65.253906 25.132812 65.269531 25.148438 C 65.386719 25.277344 65.542969 25.867188 65.285156 27.1875 L 62.6875 40.621094 C 62.617188 40.988281 62.710938 41.367188 62.949219 41.65625 C 63.183594 41.945312 63.539062 42.109375 63.910156 42.109375 L 70.546875 42.109375 C 71.144531 42.109375 71.65625 41.6875 71.769531 41.097656 L 74.503906 26.96875 C 75.144531 23.652344 74.597656 21.164062 72.871094 19.574219 C 71.226562 18.054688 68.472656 17.320312 64.449219 17.320312 L 60.136719 17.320312 L 61.414062 10.734375 C 61.484375 10.367188 61.386719 9.988281 61.152344 9.703125 C 60.914062 9.414062 60.5625 9.246094 60.191406 9.246094 M 60.191406 10.496094 L 58.628906 18.570312 L 64.449219 18.570312 C 68.113281 18.570312 70.640625 19.210938 72.03125 20.492188 C 73.421875 21.777344 73.835938 23.855469 73.28125 26.730469 L 70.546875 40.859375 L 63.910156 40.859375 L 66.507812 27.425781 C 66.804688 25.898438 66.695312 24.855469 66.183594 24.300781 C 65.667969 23.742188 64.574219 23.464844 62.902344 23.464844 L 57.679688 23.464844 L 54.3125 40.859375 L 47.78125 40.859375 L 53.65625 10.496094 L 60.191406 10.496094 "/>
<path style=" stroke:none;fill-rule:nonzero;fill:rgb(0%,0%,0%);fill-opacity:1;" d="M 84.234375 35.445312 C 86.734375 35.445312 88.605469 34.980469 89.785156 34.066406 C 90.957031 33.164062 91.765625 31.597656 92.1875 29.410156 C 92.582031 27.367188 92.433594 25.941406 91.742188 25.171875 C 91.035156 24.382812 89.503906 23.984375 87.199219 23.984375 L 83.199219 23.984375 L 80.980469 35.445312 Z M 71.148438 49.558594 C 70.964844 49.558594 70.789062 49.476562 70.671875 49.332031 C 70.550781 49.1875 70.503906 48.996094 70.539062 48.816406 L 76.414062 18.449219 C 76.472656 18.15625 76.730469 17.945312 77.027344 17.945312 L 89.691406 17.945312 C 93.671875 17.945312 96.636719 19.03125 98.5 21.171875 C 100.371094 23.324219 100.949219 26.332031 100.21875 30.113281 C 99.917969 31.652344 99.40625 33.082031 98.695312 34.363281 C 97.980469 35.648438 97.039062 36.832031 95.890625 37.890625 C 94.519531 39.179688 92.964844 40.117188 91.277344 40.667969 C 89.617188 41.210938 87.484375 41.484375 84.941406 41.484375 L 79.8125 41.484375 L 78.347656 49.054688 C 78.289062 49.347656 78.035156 49.558594 77.738281 49.558594 Z M 71.148438 49.558594 "/>
<path style=" stroke:none;fill-rule:nonzero;fill:rgb(100%,100%,100%);fill-opacity:1;" d="M 83.710938 24.609375 L 87.199219 24.609375 C 89.984375 24.609375 90.949219 25.222656 91.277344 25.589844 C 91.824219 26.195312 91.925781 27.476562 91.578125 29.292969 C 91.183594 31.324219 90.453125 32.761719 89.40625 33.570312 C 88.335938 34.398438 86.59375 34.820312 84.234375 34.820312 L 81.738281 34.820312 Z M 89.691406 17.320312 L 77.027344 17.320312 C 76.429688 17.320312 75.917969 17.742188 75.804688 18.332031 L 69.929688 48.695312 C 69.859375 49.0625 69.953125 49.441406 70.191406 49.730469 C 70.425781 50.015625 70.777344 50.183594 71.148438 50.183594 L 77.738281 50.183594 C 78.332031 50.183594 78.84375 49.757812 78.957031 49.171875 L 80.324219 42.109375 L 84.941406 42.109375 C 87.550781 42.109375 89.75 41.824219 91.472656 41.261719 C 93.242188 40.683594 94.875 39.703125 96.316406 38.347656 C 97.511719 37.246094 98.492188 36.007812 99.238281 34.667969 C 99.980469 33.332031 100.515625 31.835938 100.828125 30.230469 C 101.597656 26.25 100.972656 23.0625 98.96875 20.757812 C 96.980469 18.476562 93.859375 17.320312 89.691406 17.320312 M 80.226562 36.070312 L 84.234375 36.070312 C 86.886719 36.070312 88.867188 35.566406 90.167969 34.5625 C 91.464844 33.558594 92.34375 31.878906 92.796875 29.53125 C 93.234375 27.273438 93.035156 25.679688 92.203125 24.753906 C 91.367188 23.824219 89.699219 23.359375 87.199219 23.359375 L 82.6875 23.359375 L 80.226562 36.070312 M 89.691406 18.570312 C 93.503906 18.570312 96.28125 19.574219 98.03125 21.582031 C 99.777344 23.589844 100.304688 26.394531 99.605469 29.992188 C 99.320312 31.476562 98.832031 32.832031 98.152344 34.058594 C 97.46875 35.289062 96.574219 36.414062 95.46875 37.429688 C 94.15625 38.667969 92.695312 39.546875 91.085938 40.074219 C 89.476562 40.597656 87.429688 40.859375 84.941406 40.859375 L 79.300781 40.859375 L 77.738281 48.933594 L 71.148438 48.933594 L 77.027344 18.570312 L 89.691406 18.570312 "/>
</g>
</svg>
