<?xml version="1.0" encoding="UTF-8"?>
<svg xmlns="http://www.w3.org/2000/svg" xmlns:xlink="http://www.w3.org/1999/xlink" width="43pt" height="64" viewBox="0 0 43 64" version="1.1">
<defs>
<linearGradient id="linear0" gradientUnits="userSpaceOnUse" x1="0.553421" y1="0" x2="0.428169" y2="0.428629" gradientTransform="matrix(22.924108,-17.827322,18.597864,23.693928,-7.428955,17.883103)">
<stop offset="0" style="stop-color:rgb(32.156863%,80.784314%,38.823529%);stop-opacity:1;"/>
<stop offset="1" style="stop-color:rgb(31.764706%,63.529412%,33.72549%);stop-opacity:1;"/>
</linearGradient>
<linearGradient id="linear1" gradientUnits="userSpaceOnUse" x1="0.553486" y1="0" x2="0.428081" y2="0.428629" gradientTransform="matrix(18.553288,23.637137,-23.557102,18.319581,34.835891,2.543126)">
<stop offset="0" style="stop-color:rgb(32.156863%,80.784314%,38.823529%);stop-opacity:1;"/>
<stop offset="1" style="stop-color:rgb(31.764706%,63.529412%,33.72549%);stop-opacity:1;"/>
</linearGradient>
<linearGradient id="linear2" gradientUnits="userSpaceOnUse" x1="0.5" y1="0" x2="0.5" y2="0.588112" gradientTransform="matrix(17.071802,2.086445,-3.699914,29.993818,16.478119,-1.549897)">
<stop offset="0" style="stop-color:rgb(54.117647%,91.372549%,61.176471%);stop-opacity:1;"/>
<stop offset="1" style="stop-color:rgb(32.156863%,80.784314%,38.823529%);stop-opacity:1;"/>
</linearGradient>
<linearGradient id="linear3" gradientUnits="userSpaceOnUse" x1="0.513776" y1="0.174726" x2="0.445847" y2="1" gradientTransform="matrix(40.574219,0,0,44.679688,0,19.320312)">
<stop offset="0" style="stop-color:rgb(100%,89.803922%,42.352941%);stop-opacity:1;"/>
<stop offset="1" style="stop-color:rgb(100%,77.647059%,22.745098%);stop-opacity:1;"/>
</linearGradient>
</defs>
<g id="surface1">
<path style=" stroke:none;fill-rule:evenodd;fill:url(#linear0);" d="M 19.628906 31.082031 C 23.976562 26.953125 22.648438 21.851562 18.710938 15.667969 C 14.769531 9.488281 6.839844 7.285156 5.359375 8.691406 C 3.878906 10.09375 3.550781 20.125 7.492188 26.308594 C 11.433594 32.492188 15.277344 35.207031 19.628906 31.082031 Z M 19.628906 31.082031 "/>
<path style=" stroke:none;fill-rule:evenodd;fill:url(#linear1);" d="M 23.390625 31.652344 C 26.605469 36.703125 30.910156 34.855469 36.234375 29.804688 C 41.5625 24.753906 43.769531 15.078125 42.675781 13.363281 C 41.578125 11.644531 33.261719 11.730469 27.9375 16.78125 C 22.609375 21.832031 20.171875 26.601562 23.390625 31.652344 Z M 23.390625 31.652344 "/>
<path style=" stroke:none;fill-rule:evenodd;fill:url(#linear2);" d="M 21.628906 28.871094 C 26.972656 29.527344 29.074219 24.613281 30.054688 16.667969 C 31.035156 8.726562 26.996094 0.328125 25.175781 0.109375 C 23.359375 -0.113281 17.253906 7.042969 16.273438 14.984375 C 15.292969 22.925781 16.285156 28.21875 21.628906 28.871094 Z M 21.628906 28.871094 "/>
<path style=" stroke:none;fill-rule:evenodd;fill:url(#linear3);" d="M 20.285156 64 C 31.488281 64 40.574219 60.761719 40.574219 46.070312 C 40.574219 31.375 31.488281 19.320312 20.285156 19.320312 C 9.078125 19.320312 0 31.375 0 46.070312 C 0 60.761719 9.078125 64 20.285156 64 Z M 20.285156 64 "/>
<path style=" stroke:none;fill-rule:evenodd;fill:rgb(91.764706%,67.843137%,80%);fill-opacity:1;" d="M 33.429688 41.726562 C 33.429688 40.988281 32.132812 40.386719 30.53125 40.386719 C 28.929688 40.386719 27.632812 40.988281 27.632812 41.726562 C 27.632812 42.46875 28.929688 43.070312 30.53125 43.070312 C 32.132812 43.070312 33.429688 42.46875 33.429688 41.726562 Z M 33.429688 41.726562 "/>
<path style=" stroke:none;fill-rule:evenodd;fill:rgb(91.764706%,67.843137%,80%);fill-opacity:1;" d="M 12.109375 41.273438 C 12.199219 40.539062 10.988281 39.785156 9.398438 39.589844 C 7.808594 39.398438 6.449219 39.835938 6.355469 40.570312 C 6.265625 41.304688 7.480469 42.058594 9.070312 42.253906 C 10.65625 42.449219 12.019531 42.007812 12.109375 41.273438 Z M 12.109375 41.273438 "/>
<path style="fill:none;stroke-width:6;stroke-linecap:round;stroke-linejoin:round;stroke:rgb(0%,0%,0%);stroke-opacity:1;stroke-miterlimit:4;" d="M 73.100317 58.284936 C 79.828027 63.180022 87.407096 64.940195 95.836003 63.536382 C 104.234446 62.105011 110.331411 58.287036 114.093387 51.996751 " transform="matrix(-0.134612,0.00702202,0.00705469,0.133988,31.569587,32.931111)"/>
<path style=" stroke:none;fill-rule:evenodd;fill:rgb(0%,0%,0%);fill-opacity:1;" d="M 10.917969 34.269531 C 11.714844 34.242188 12.453125 34.539062 12.992188 35.042969 C 13.535156 35.546875 13.886719 36.257812 13.914062 37.050781 C 13.941406 37.847656 13.644531 38.582031 13.136719 39.121094 C 12.632812 39.660156 11.917969 40.007812 11.117188 40.035156 C 10.320312 40.0625 9.582031 39.765625 9.039062 39.261719 C 8.5 38.757812 8.148438 38.050781 8.121094 37.253906 C 8.09375 36.457031 8.390625 35.726562 8.898438 35.183594 C 9.402344 34.644531 10.117188 34.296875 10.917969 34.269531 Z M 10.917969 34.269531 "/>
<path style=" stroke:none;fill-rule:evenodd;fill:rgb(100%,100%,100%);fill-opacity:1;" d="M 11.066406 36.679688 C 11.050781 36.164062 10.613281 35.757812 10.09375 35.773438 C 9.570312 35.792969 9.164062 36.226562 9.183594 36.746094 C 9.199219 37.265625 9.636719 37.671875 10.160156 37.652344 C 10.679688 37.632812 11.085938 37.199219 11.066406 36.679688 Z M 11.066406 36.679688 "/>
<path style=" stroke:none;fill-rule:evenodd;fill:rgb(0%,0%,0%);fill-opacity:1;" d="M 28.476562 35.003906 C 29.277344 34.972656 30.011719 35.273438 30.554688 35.773438 C 31.097656 36.277344 31.445312 36.988281 31.472656 37.785156 C 31.5 38.582031 31.203125 39.3125 30.695312 39.851562 C 30.191406 40.390625 29.476562 40.738281 28.679688 40.769531 C 27.878906 40.796875 27.144531 40.5 26.601562 39.996094 C 26.058594 39.492188 25.707031 38.78125 25.679688 37.984375 C 25.652344 37.191406 25.953125 36.457031 26.457031 35.917969 C 26.964844 35.378906 27.675781 35.03125 28.476562 35.003906 Z M 28.476562 35.003906 "/>
<path style="fill-rule:nonzero;fill:rgb(100%,100%,100%);fill-opacity:1;stroke-width:3;stroke-linecap:butt;stroke-linejoin:miter;stroke:rgb(100%,100%,100%);stroke-opacity:1;stroke-miterlimit:4;" d="M 136.013633 24.50101 C 135.993772 34.726865 144.285803 43.001967 154.492363 42.995124 C 164.727885 42.98727 172.99306 34.716608 173.012921 24.490753 C 173.004837 14.295004 164.71179 5.990807 154.505229 5.99765 C 144.269708 6.005504 136.004532 14.276165 136.013633 24.50101 Z M 130.011537 24.506687 C 130.002452 10.960849 140.95748 0.0035511 154.498651 -0.00321278 C 168.039821 -0.00997667 179.006947 10.968334 178.986055 24.486087 C 178.995141 38.031924 168.040112 48.989222 154.498942 48.995986 C 140.957771 49.00275 129.990646 38.02444 130.011537 24.506687 Z M 130.011537 24.506687 " transform="matrix(-0.134714,0.00468253,0.00470432,0.13409,31.715509,33.144173)"/>
<path style="fill-rule:nonzero;fill:rgb(100%,100%,100%);fill-opacity:1;stroke-width:3;stroke-linecap:butt;stroke-linejoin:miter;stroke:rgb(100%,100%,100%);stroke-opacity:1;stroke-miterlimit:4;" d="M 5.99376 34.488997 C 6.002861 44.713842 14.294892 52.988943 24.502468 53.011196 C 34.709028 53.004354 43.002149 44.703585 42.994065 34.507836 C 43.013926 24.281981 34.721894 16.006879 24.486373 16.014734 C 14.278797 15.99248 6.014637 24.292238 5.99376 34.488997 Z M -0.00833536 34.494675 C 0.0125563 20.976922 10.966569 9.990528 24.508755 10.01286 C 38.020965 10.007107 48.987074 20.956322 48.99616 34.502159 C 49.00423 48.018901 38.021256 59.006306 24.509047 59.012059 C 10.96686 58.989727 0.000750338 48.040512 -0.00833536 34.494675 Z M -0.00833536 34.494675 " transform="matrix(-0.134714,0.00468253,0.00470432,0.13409,31.715509,33.144173)"/>
<path style=" stroke:none;fill-rule:evenodd;fill:rgb(100%,100%,100%);fill-opacity:1;" d="M 28.628906 37.414062 C 28.609375 36.894531 28.171875 36.488281 27.652344 36.507812 C 27.132812 36.527344 26.722656 36.960938 26.742188 37.480469 C 26.761719 37.996094 27.199219 38.402344 27.71875 38.382812 C 28.238281 38.367188 28.644531 37.933594 28.628906 37.414062 Z M 28.628906 37.414062 "/>
<path style="fill:none;stroke-width:11;stroke-linecap:round;stroke-linejoin:miter;stroke:rgb(92.54902%,71.764706%,19.607843%);stroke-opacity:1;stroke-miterlimit:4;" d="M 70.513445 377.49939 L 144.496639 454.50531 " transform="matrix(0.134796,0,0,0.134172,-4.583072,-3.220126)"/>
<path style="fill:none;stroke-width:11;stroke-linecap:round;stroke-linejoin:miter;stroke:rgb(92.54902%,71.764706%,19.607843%);stroke-opacity:1;stroke-miterlimit:4;" d="M 134.49891 386.495544 L 87.495094 436.513 " transform="matrix(0.134796,0,0,0.134172,-4.583072,-3.220126)"/>
<path style="fill:none;stroke-width:11;stroke-linecap:round;stroke-linejoin:miter;stroke:rgb(92.54902%,71.764706%,19.607843%);stroke-opacity:1;stroke-miterlimit:4;" d="M 0.49464 0.49939 L 74.506813 77.50531 " transform="matrix(-0.134796,0,0,0.134172,35.586207,47.362683)"/>
<path style="fill:none;stroke-width:11;stroke-linecap:round;stroke-linejoin:miter;stroke:rgb(92.54902%,71.764706%,19.607843%);stroke-opacity:1;stroke-miterlimit:4;" d="M 64.509084 9.495544 L 17.505269 59.513 " transform="matrix(-0.134796,0,0,0.134172,35.586207,47.362683)"/>
<path style="fill:none;stroke-width:11;stroke-linecap:round;stroke-linejoin:miter;stroke:rgb(100%,78.039216%,23.137255%);stroke-opacity:1;stroke-miterlimit:4;" d="M 0.504089 0.49028 L 49.502563 49.493641 " transform="matrix(0,0.134172,-0.134796,0,24.398119,24.553459)"/>
<path style="fill:none;stroke-width:11;stroke-linecap:round;stroke-linejoin:miter;stroke:rgb(100%,78.039216%,23.137255%);stroke-opacity:1;stroke-miterlimit:4;" d="M 0.497437 10.488009 L 49.495911 59.49137 " transform="matrix(0,-0.134172,-0.134796,0,24.398119,31.262055)"/>
</g>
</svg>
