<svg width="63" height="52" viewBox="0 0 63 52" xmlns="http://www.w3.org/2000/svg">
    <path d="m52.703 3.684 1.328 1.768a1.071 1.071 0 0 1-.2 1.487l-1.41 1.083c.257.69.42 1.426.487 2.177l1.605.223c.575.078.974.617.898 1.197l-.298 2.203c-.077.58-.61.99-1.184.907l-1.754-.243a8.276 8.276 0 0 1-1.184 1.886l.984 1.306a1.072 1.072 0 0 1-.205 1.488l-1.748 1.342a1.05 1.05 0 0 1-1.472-.202l-1.071-1.425a8.18 8.18 0 0 1-2.159.492l-.22 1.622c-.077.58-.61.985-1.185.907l-2.179-.3a1.061 1.061 0 0 1-.897-1.197l.24-1.773a8.44 8.44 0 0 1-1.865-1.192l-1.292.99a1.045 1.045 0 0 1-1.472-.202l-1.328-1.768a1.071 1.071 0 0 1 .2-1.487l1.41-1.083a8.432 8.432 0 0 1-.487-2.177l-1.605-.223a1.058 1.058 0 0 1-.897-1.197l.297-2.203c.082-.58.61-.985 1.185-.907l1.753.243a8.558 8.558 0 0 1 1.18-1.886l-.98-1.306a1.066 1.066 0 0 1 .2-1.483l1.748-1.342a1.045 1.045 0 0 1 1.472.202l1.072 1.425a8.144 8.144 0 0 1 2.153-.492l.22-1.622c.077-.58.61-.99 1.185-.913l2.179.301c.574.078.98.617.897 1.197l-.24 1.773a8.31 8.31 0 0 1 1.87 1.197l1.293-.99a1.046 1.046 0 0 1 1.476.197zm-37.49 31.103v-8.552h4.358c.81 0 1.425.068 1.851.213.426.14.774.399 1.03.777.262.384.395.845.395 1.39 0 .471-.102.886-.302 1.228-.2.347-.477.627-.826.84-.22.134-.528.248-.917.336.312.11.538.208.676.316.098.073.236.223.416.451s.302.41.364.534l1.271 2.472h-2.953l-1.395-2.607c-.18-.336-.333-.56-.471-.658a1.116 1.116 0 0 0-.641-.197h-.23v3.462h-2.626v-.005zm9.219 14.891H19.55L18.848 52h-4.4l5.246-14.093h4.717L29.636 52h-4.512l-.692-2.322zm-.913-3.053-1.523-5.069-1.528 5.07h3.051zm7.132-8.718h7.168c1.564 0 2.733.374 3.507 1.125.774.752 1.164 1.825 1.164 3.208 0 1.426-.426 2.54-1.272 3.343-.846.804-2.143 1.203-3.881 1.203h-2.364V52h-4.322V37.907zm4.322 6.023h1.062c.835 0 1.425-.145 1.763-.44.339-.29.508-.67.508-1.12 0-.44-.149-.819-.44-1.125-.293-.305-.847-.461-1.657-.461h-1.236v3.146zm9.26-6.023h4.322V52h-4.322V37.907zm-26.395-8.199h1.102c.118 0 .35-.041.693-.12a.687.687 0 0 0 .425-.269.784.784 0 0 0 .164-.497c0-.275-.087-.493-.261-.638-.175-.15-.498-.223-.974-.223h-1.149v1.747zm6.194-3.473h6.998v1.825h-4.373v1.363h4.056v1.741h-4.056v1.685h4.502v1.933h-7.127v-8.547zm7.747 5.722 2.482-.155c.05.41.164.715.328.928.272.342.656.518 1.153.518.37 0 .662-.088.862-.264.2-.177.302-.384.302-.617 0-.223-.097-.42-.287-.596-.19-.176-.636-.337-1.338-.498-1.143-.259-1.959-.606-2.45-1.036-.493-.43-.74-.98-.74-1.649 0-.44.129-.855.38-1.243.251-.39.63-.7 1.138-.923.508-.223 1.2-.332 2.082-.332 1.082 0 1.902.202 2.471.612.564.41.903 1.052 1.01 1.943l-2.455.15c-.067-.388-.205-.673-.41-.844-.21-.176-.503-.264-.867-.264-.303 0-.533.067-.687.197a.603.603 0 0 0-.23.476c0 .135.066.254.189.368.123.11.41.218.871.317 1.144.248 1.964.502 2.456.756.493.254.857.57 1.077.949.226.373.339.798.339 1.264 0 .55-.15 1.053-.452 1.514a2.809 2.809 0 0 1-1.256 1.052c-.538.238-1.215.358-2.035.358-1.436 0-2.436-.28-2.99-.84-.553-.57-.866-1.28-.943-2.14zm8.055-5.722h7.952v2.115H45.12v6.437h-2.615V28.35h-2.671v-2.115zM31.036 5.94a16.075 16.075 0 0 0-2.826.03c-2.886.28-5.69 1.343-8.008 3.163-2.682 2.099-4.717 5.24-5.502 9.401l-.246 1.301-1.282.228c-1.256.223-2.379.53-3.363.918a11.21 11.21 0 0 0-2.548 1.379 8.49 8.49 0 0 0-1.544 1.45c-1.348 1.633-1.974 3.68-1.958 5.754.015 2.104.692 4.23 1.943 5.976a9.725 9.725 0 0 0 1.62 1.762 8.115 8.115 0 0 0 2.118 1.285c.446.187.923.343 1.42.467v3.882a13.75 13.75 0 0 1-2.85-.835 11.853 11.853 0 0 1-3.103-1.88 13.329 13.329 0 0 1-2.256-2.447 14.359 14.359 0 0 1-2.65-8.2c-.021-2.933.881-5.851 2.83-8.215a12.165 12.165 0 0 1 2.225-2.094c.99-.725 2.122-1.337 3.404-1.84a20.434 20.434 0 0 1 2.82-.87c1.128-4.53 3.533-8.019 6.625-10.439 2.891-2.265 6.373-3.587 9.957-3.934a20.105 20.105 0 0 1 5.655.254 4.395 4.395 0 0 0-.097.518l-.005.032c-.036.295-.052.59-.036.891a4.44 4.44 0 0 0-1.097.627l-.016.01a4.625 4.625 0 0 0-1.23 1.426zm27.128 9.951c.287.264.564.54.836.835.548.596 1.066 1.27 1.553 2.021 1.64 2.55 2.482 5.955 2.446 9.288-.036 3.27-.908 6.525-2.692 8.92-1.164 1.56-2.656 2.835-4.445 3.846-1.226.694-2.605 1.27-4.107 1.736v-4.017c.81-.306 1.564-.648 2.256-1.037 1.348-.761 2.45-1.69 3.276-2.804 1.282-1.725 1.913-4.167 1.938-6.67.031-2.628-.605-5.266-1.84-7.184a10.741 10.741 0 0 0-1.154-1.498 10.74 10.74 0 0 0-.482-.487 5.04 5.04 0 0 0 .02-.788 4.44 4.44 0 0 0 1.098-.627l.015-.01c.528-.41.97-.928 1.282-1.524zM45.16 6.633c2.364.327 4.015 2.53 3.692 4.919-.323 2.39-2.502 4.063-4.866 3.737-2.364-.327-4.02-2.53-3.692-4.919.329-2.39 2.503-4.063 4.866-3.737z" fill="#667DFF" fill-rule="nonzero"/>
</svg>
