<?xml version="1.0" encoding="UTF-8"?>
<svg xmlns="http://www.w3.org/2000/svg" xmlns:xlink="http://www.w3.org/1999/xlink" width="64pt" height="64" viewBox="0 0 64 64" version="1.1">
<g id="surface1">
<path style=" stroke:none;fill-rule:nonzero;fill:rgb(81.176471%,39.215686%,60.392157%);fill-opacity:1;" d="M 55.09375 35.558594 C 52.855469 35.574219 50.917969 36.109375 49.292969 36.910156 C 48.695312 35.722656 48.09375 34.683594 47.992188 33.910156 C 47.882812 33.011719 47.742188 32.460938 47.882812 31.386719 C 48.019531 30.308594 48.644531 28.785156 48.644531 28.660156 C 48.632812 28.546875 48.507812 27.996094 47.21875 27.984375 C 45.933594 27.972656 44.820312 28.234375 44.695312 28.574219 C 44.472656 29.199219 44.289062 29.835938 44.15625 30.484375 C 43.929688 31.660156 41.582031 35.824219 40.242188 38.011719 C 39.804688 37.160156 39.429688 36.410156 39.355469 35.8125 C 39.242188 34.910156 39.105469 34.363281 39.242188 33.285156 C 39.378906 32.210938 40.003906 30.6875 40.003906 30.5625 C 39.992188 30.449219 39.867188 29.898438 38.578125 29.886719 C 37.292969 29.875 36.179688 30.136719 36.054688 30.476562 C 35.929688 30.8125 35.792969 31.613281 35.515625 32.386719 C 35.253906 33.164062 32.128906 40.113281 31.316406 41.925781 C 30.902344 42.851562 30.542969 43.589844 30.277344 44.089844 C 30.015625 44.589844 30.265625 44.128906 30.242188 44.175781 L 29.890625 44.839844 L 29.890625 44.851562 C 29.71875 45.164062 29.527344 45.464844 29.441406 45.464844 C 29.378906 45.464844 29.253906 44.628906 29.46875 43.476562 C 29.929688 41.0625 31.054688 37.300781 31.042969 37.164062 C 31.042969 37.101562 31.253906 36.4375 30.316406 36.101562 C 29.402344 35.761719 29.078125 36.324219 29.003906 36.324219 C 28.929688 36.324219 28.867188 36.527344 28.867188 36.527344 C 28.867188 36.527344 29.878906 32.289062 26.929688 32.289062 C 25.078125 32.289062 22.527344 34.300781 21.265625 36.136719 L 14.890625 39.625 L 14.75 39.476562 C 11.179688 35.660156 4.566406 32.960938 4.839844 27.835938 C 4.941406 25.972656 5.589844 21.058594 17.539062 15.109375 C 27.328125 10.234375 35.167969 11.570312 36.53125 14.546875 C 38.46875 18.796875 32.34375 26.695312 22.164062 27.835938 C 18.289062 28.273438 16.253906 26.773438 15.738281 26.210938 C 15.203125 25.621094 15.128906 25.597656 14.925781 25.710938 C 14.601562 25.886719 14.800781 26.410156 14.925781 26.722656 C 15.226562 27.511719 16.476562 28.910156 18.601562 29.613281 C 20.464844 30.226562 25.015625 30.5625 30.515625 28.4375 C 36.679688 26.050781 41.492188 19.425781 40.078125 13.886719 C 38.640625 8.25 29.289062 6.398438 20.453125 9.535156 C 15.191406 11.410156 9.5 14.335938 5.398438 18.171875 C 0.515625 22.722656 -0.261719 26.699219 0.0625 28.347656 C 1.203125 34.234375 9.3125 38.074219 12.5625 40.910156 L 12.113281 41.160156 C 10.488281 41.960938 4.300781 45.199219 2.75 48.625 C 1 52.5 3.027344 55.289062 4.375 55.664062 C 8.550781 56.824219 12.824219 54.738281 15.140625 51.300781 C 17.4375 47.863281 17.164062 43.398438 16.101562 41.363281 L 16.0625 41.285156 L 17.339844 40.535156 C 18.164062 40.050781 18.976562 39.597656 19.6875 39.210938 C 19.289062 40.300781 19 41.585938 18.851562 43.460938 C 18.675781 45.660156 19.574219 48.511719 20.765625 49.636719 C 21.289062 50.125 21.914062 50.136719 22.300781 50.136719 C 23.675781 50.136719 24.300781 49 24.988281 47.636719 C 25.839844 45.976562 26.589844 44.050781 26.589844 44.050781 C 26.589844 44.050781 25.652344 49.261719 28.214844 49.261719 C 29.152344 49.261719 30.089844 48.050781 30.515625 47.425781 L 30.515625 47.4375 C 30.515625 47.4375 30.539062 47.398438 30.589844 47.3125 C 30.691406 47.160156 30.738281 47.074219 30.738281 47.074219 L 30.738281 47.050781 C 31.113281 46.398438 31.953125 44.910156 33.203125 42.449219 C 34.816406 39.273438 36.367188 35.300781 36.367188 35.300781 C 36.367188 35.300781 36.515625 36.273438 36.980469 37.875 C 37.253906 38.824219 37.855469 39.863281 38.316406 40.875 L 37.71875 41.699219 L 37.730469 41.710938 C 37.410156 42.136719 37.078125 42.554688 36.742188 42.960938 C 35.464844 44.488281 33.941406 46.226562 33.742188 46.726562 C 33.503906 47.3125 33.554688 47.75 34.015625 48.101562 C 34.355469 48.351562 34.953125 48.398438 35.589844 48.351562 C 36.742188 48.273438 37.539062 47.988281 37.941406 47.8125 C 38.664062 47.554688 39.34375 47.195312 39.964844 46.75 C 41.214844 45.824219 41.980469 44.511719 41.902344 42.761719 C 41.867188 41.796875 41.554688 40.847656 41.164062 39.949219 L 41.503906 39.449219 C 43.480469 36.558594 45.003906 33.386719 45.003906 33.386719 C 45.003906 33.386719 45.152344 34.359375 45.617188 35.960938 C 45.855469 36.773438 46.328125 37.660156 46.753906 38.535156 C 44.90625 40.046875 43.742188 41.796875 43.34375 42.949219 C 42.605469 45.074219 43.179688 46.035156 44.265625 46.261719 C 44.753906 46.359375 45.453125 46.136719 45.980469 45.910156 C 46.628906 45.699219 47.417969 45.335938 48.144531 44.796875 C 49.394531 43.871094 50.59375 42.585938 50.53125 40.847656 C 50.492188 40.046875 50.28125 39.261719 49.992188 38.511719 C 51.566406 37.859375 53.605469 37.484375 56.191406 37.796875 C 61.757812 38.445312 62.855469 41.921875 62.644531 43.371094 C 62.429688 44.820312 61.269531 45.621094 60.878906 45.871094 C 60.492188 46.109375 60.367188 46.195312 60.40625 46.371094 C 60.453125 46.636719 60.628906 46.621094 60.96875 46.570312 C 61.429688 46.496094 63.894531 45.382812 63.992188 42.710938 C 64.144531 39.269531 60.878906 35.519531 55.09375 35.558594 Z M 12.191406 50.023438 C 10.351562 52.039062 7.765625 52.800781 6.664062 52.148438 C 5.476562 51.460938 5.941406 48.5 8.203125 46.363281 C 9.578125 45.0625 11.367188 43.863281 12.539062 43.125 L 13.679688 42.4375 C 13.753906 42.386719 13.804688 42.359375 13.804688 42.359375 C 13.890625 42.3125 13.992188 42.246094 14.09375 42.1875 C 14.929688 45.234375 14.128906 47.910156 12.191406 50.023438 Z M 25.628906 40.886719 C 24.992188 42.449219 23.640625 46.460938 22.828125 46.238281 C 22.128906 46.050781 21.703125 43.011719 22.691406 40.011719 C 23.191406 38.496094 24.253906 36.699219 24.878906 35.996094 C 25.894531 34.871094 26.992188 34.496094 27.269531 34.960938 C 27.59375 35.558594 26.03125 39.910156 25.628906 40.886719 Z M 36.71875 46.1875 C 36.441406 46.324219 36.191406 46.425781 36.078125 46.351562 C 35.992188 46.300781 36.191406 46.113281 36.191406 46.113281 C 36.191406 46.113281 37.582031 44.625 38.132812 43.9375 L 39.21875 42.550781 L 39.21875 42.699219 C 39.21875 44.5 37.492188 45.699219 36.71875 46.1875 Z M 45.269531 44.238281 C 45.066406 44.085938 45.09375 43.625 45.769531 42.175781 C 46.03125 41.597656 46.632812 40.636719 47.667969 39.722656 C 47.792969 40.097656 47.867188 40.460938 47.855469 40.800781 C 47.84375 43.050781 46.242188 43.886719 45.269531 44.238281 Z M 45.269531 44.238281 "/>
</g>
</svg>
