<svg width="76" height="46" viewBox="0 0 76 46" xmlns="http://www.w3.org/2000/svg">
    <path d="M38 .012c-10.13 0-16.46 5.064-18.993 15.19 3.799-5.064 8.23-6.962 13.295-5.696 2.89.722 4.955 2.818 7.242 5.138 3.724 3.78 8.034 8.153 17.45 8.153 10.128 0 16.46-5.063 18.992-15.19-3.798 5.063-8.23 6.962-13.296 5.697-2.888-.722-4.954-2.819-7.24-5.139C51.726 4.386 47.414.012 38 .012zM19.007 22.797c-10.13 0-16.461 5.064-18.993 15.19 3.798-5.063 8.23-6.962 13.296-5.696 2.888.723 4.954 2.82 7.24 5.138 3.724 3.78 8.035 8.154 17.45 8.154 10.13 0 16.46-5.064 18.993-15.19-3.799 5.063-8.23 6.962-13.295 5.696-2.89-.721-4.955-2.819-7.242-5.138-3.724-3.78-8.034-8.154-17.45-8.154z" fill="#06B6D4" fill-rule="nonzero"/>
</svg>
