<?xml version="1.0" encoding="UTF-8"?>
<svg xmlns="http://www.w3.org/2000/svg" xmlns:xlink="http://www.w3.org/1999/xlink" width="64pt" height="64" viewBox="0 0 64 64" version="1.1">
<g id="surface1">
<path style=" stroke:none;fill-rule:nonzero;fill:rgb(14.901961%,30.196078%,89.411765%);fill-opacity:1;" d="M 60.230469 0 L 55.089844 57.59375 L 31.980469 64 L 8.9375 57.601562 L 3.800781 0 Z M 60.230469 0 "/>
<path style=" stroke:none;fill-rule:nonzero;fill:rgb(16.078431%,39.607843%,94.509804%);fill-opacity:1;" d="M 32.015625 59.101562 L 50.691406 53.925781 L 55.082031 4.710938 L 32.015625 4.710938 Z M 32.015625 59.101562 "/>
<path style=" stroke:none;fill-rule:nonzero;fill:rgb(92.156863%,92.156863%,92.156863%);fill-opacity:1;" d="M 32.015625 26.074219 L 15.574219 26.074219 L 16.207031 33.136719 L 32.015625 33.136719 Z M 32.015625 26.074219 "/>
<path style=" stroke:none;fill-rule:nonzero;fill:rgb(92.156863%,92.156863%,92.156863%);fill-opacity:1;" d="M 32.015625 11.773438 L 14.300781 11.773438 L 14.941406 18.839844 L 32.015625 18.839844 Z M 32.015625 11.773438 "/>
<path style=" stroke:none;fill-rule:nonzero;fill:rgb(92.156863%,92.156863%,92.156863%);fill-opacity:1;" d="M 16.523438 36.671875 L 17.511719 47.761719 L 31.984375 51.78125 L 32.015625 51.773438 L 32.015625 44.421875 L 31.984375 44.429688 L 24.117188 42.304688 L 23.613281 36.671875 Z M 16.523438 36.671875 "/>
<path style=" stroke:none;fill-rule:nonzero;fill:rgb(100%,100%,100%);fill-opacity:1;" d="M 40.691406 33.136719 L 39.871094 42.300781 L 31.992188 44.425781 L 31.992188 51.777344 L 46.472656 47.761719 L 46.582031 46.570312 L 48.242188 27.972656 L 48.414062 26.074219 L 49.6875 11.773438 L 31.992188 11.773438 L 31.992188 18.839844 L 41.945312 18.839844 L 41.304688 26.074219 L 31.992188 26.074219 L 31.992188 33.136719 Z M 40.691406 33.136719 "/>
</g>
</svg>
