<?xml version="1.0" encoding="UTF-8"?>
<svg xmlns="http://www.w3.org/2000/svg" xmlns:xlink="http://www.w3.org/1999/xlink" width="46pt" height="63pt" viewBox="0 0 46 63" version="1.1">
<g id="surface1">
<path style=" stroke:none;fill-rule:evenodd;fill:rgb(100%,64.705882%,5.490196%);fill-opacity:1;" d="M 0.226562 49.851562 L 0.515625 49.296875 L 18.40625 15.820312 L 10.457031 0.996094 C 9.796875 -0.226562 8.117188 0.0859375 7.902344 1.453125 Z M 24.207031 26.453125 L 29.976562 20.628906 L 24.207031 9.792969 C 23.65625 8.765625 22.328125 8.660156 21.785156 9.6875 L 18.597656 15.746094 L 18.5 16.054688 Z M 24.207031 26.453125 "/>
<path style=" stroke:none;fill-rule:nonzero;fill:rgb(96.470588%,50.980392%,4.705882%);fill-opacity:1;" d="M 0 50.253906 L 0.171875 50.082031 L 0.800781 49.832031 L 23.9375 27.101562 L 24.234375 26.3125 L 18.460938 15.46875 Z M 0 50.253906 "/>
<path style=" stroke:none;fill-rule:nonzero;fill:rgb(98.823529%,79.215686%,24.705882%);fill-opacity:1;" d="M 45.804688 50.105469 L 39.871094 14.066406 C 39.683594 12.941406 38.507812 12.472656 37.691406 13.28125 L 0.234375 50.183594 L 20.824219 61.53125 C 22.128906 62.25 23.71875 62.25 25.023438 61.53125 Z M 45.804688 50.105469 "/>
</g>
</svg>
