<?xml version="1.0" encoding="UTF-8"?>
<svg xmlns="http://www.w3.org/2000/svg" xmlns:xlink="http://www.w3.org/1999/xlink" width="64pt" height="64" viewBox="0 0 64 64" version="1.1">
<g id="surface1">
<path style=" stroke:none;fill-rule:nonzero;fill:rgb(94.117647%,23.529412%,18.039216%);fill-opacity:1;" d="M 62.792969 29.148438 L 34.851562 1.207031 C 33.242188 -0.402344 30.632812 -0.402344 29.023438 1.207031 L 23.222656 7.007812 L 30.582031 14.367188 C 32.292969 13.769531 34.253906 14.179688 35.617188 15.542969 C 36.941406 16.871094 37.394531 18.835938 36.78125 20.609375 L 43.875 27.703125 C 45.589844 27.109375 47.570312 27.492188 48.941406 28.867188 C 50.855469 30.78125 50.855469 33.886719 48.9375 35.804688 C 47.023438 37.71875 43.917969 37.71875 42.003906 35.800781 C 40.5625 34.363281 40.207031 32.242188 40.933594 30.46875 L 34.316406 23.851562 L 34.316406 41.261719 C 34.796875 41.5 35.238281 41.8125 35.617188 42.191406 C 37.535156 44.105469 37.535156 47.210938 35.617188 49.125 C 33.703125 51.042969 30.597656 51.042969 28.683594 49.125 C 27.761719 48.207031 27.242188 46.960938 27.242188 45.65625 C 27.242188 44.355469 27.761719 43.109375 28.683594 42.191406 C 29.15625 41.71875 29.683594 41.359375 30.289062 41.121094 L 30.289062 23.546875 C 29.703125 23.308594 29.15625 22.953125 28.683594 22.476562 C 27.273438 21.070312 26.855469 18.953125 27.625 17.117188 L 20.367188 9.859375 L 1.207031 29 C 0.433594 29.773438 -0.00390625 30.820312 -0.00390625 31.914062 C -0.00390625 33.007812 0.433594 34.058594 1.207031 34.828125 L 29.148438 62.769531 C 30.757812 64.378906 33.367188 64.378906 34.976562 62.769531 L 62.792969 35 C 63.566406 34.226562 64 33.179688 64 32.085938 C 64 30.992188 63.566406 29.941406 62.792969 29.171875 "/>
</g>
</svg>
