<?xml version="1.0" encoding="UTF-8"?>
<svg xmlns="http://www.w3.org/2000/svg" xmlns:xlink="http://www.w3.org/1999/xlink" width="64pt" height="64" viewBox="0 0 64 64" version="1.1">
<g id="surface1">
<path style=" stroke:none;fill-rule:nonzero;fill:rgb(89.411765%,30.196078%,14.901961%);fill-opacity:1;" d="M 8.921875 57.605469 L 3.785156 0.00390625 L 60.214844 0.00390625 L 55.074219 57.597656 L 31.964844 64 Z M 8.921875 57.605469 "/>
<path style=" stroke:none;fill-rule:nonzero;fill:rgb(94.509804%,39.607843%,16.078431%);fill-opacity:1;" d="M 50.675781 53.929688 L 55.066406 4.710938 L 32 4.710938 L 32 59.105469 Z M 50.675781 53.929688 "/>
<path style=" stroke:none;fill-rule:nonzero;fill:rgb(92.156863%,92.156863%,92.156863%);fill-opacity:1;" d="M 31.976562 11.777344 L 14.285156 11.777344 L 16.191406 33.140625 L 32 33.140625 L 32 26.074219 L 22.652344 26.074219 L 22.007812 18.84375 L 32 18.84375 L 32 11.777344 Z M 32 44.398438 L 31.96875 44.40625 L 24.101562 42.285156 L 23.601562 36.648438 L 16.507812 36.648438 L 17.496094 47.742188 L 31.96875 51.742188 L 32 51.730469 Z M 32 44.398438 "/>
<path style=" stroke:none;fill-rule:nonzero;fill:rgb(100%,100%,100%);fill-opacity:1;" d="M 31.976562 33.140625 L 40.675781 33.140625 L 39.875 42.300781 L 31.996094 44.425781 L 31.996094 51.777344 L 46.480469 47.761719 L 48.421875 26.070312 L 32 26.070312 Z M 49.503906 13.671875 L 49.671875 11.777344 L 31.972656 11.777344 L 31.972656 18.839844 L 49.035156 18.839844 L 49.175781 17.253906 Z M 49.503906 13.671875 "/>
</g>
</svg>
