<?xml version="1.0" encoding="UTF-8"?>
<svg xmlns="http://www.w3.org/2000/svg" xmlns:xlink="http://www.w3.org/1999/xlink" width="64pt" height="64" viewBox="0 0 64 64" version="1.1">
<g id="surface1">
<rect x="0" y="0" width="64" height="64" style="fill:rgb(94.117647%,85.882353%,30.980392%);fill-opacity:1;stroke:none;"/>
<path style=" stroke:none;fill-rule:nonzero;fill:rgb(19.607843%,20%,18.823529%);fill-opacity:1;" d="M 58.761719 48.734375 C 58.292969 45.816406 56.390625 43.363281 50.75 41.078125 C 48.789062 40.175781 46.605469 39.53125 45.957031 38.046875 C 45.726562 37.183594 45.695312 36.695312 45.839844 36.171875 C 46.261719 34.476562 48.285156 33.945312 49.890625 34.433594 C 50.925781 34.78125 51.90625 35.578125 52.496094 36.847656 C 55.257812 35.058594 55.25 35.070312 57.179688 33.84375 C 56.472656 32.75 56.097656 32.242188 55.636719 31.773438 C 53.972656 29.917969 51.710938 28.964844 48.089844 29.039062 C 47.464844 29.117188 46.832031 29.203125 46.207031 29.28125 C 44.398438 29.738281 42.675781 30.6875 41.667969 31.957031 C 38.636719 35.394531 39.5 41.410156 43.1875 43.886719 C 46.820312 46.613281 52.15625 47.234375 52.835938 49.78125 C 53.5 52.902344 50.542969 53.914062 47.605469 53.554688 C 45.4375 53.105469 44.234375 52.003906 42.933594 50 C 40.535156 51.386719 40.535156 51.386719 38.070312 52.804688 C 38.65625 54.082031 39.269531 54.660156 40.25 55.769531 C 44.886719 60.472656 56.488281 60.242188 58.566406 53.121094 C 58.652344 52.878906 59.210938 51.25 58.761719 48.734375 Z M 34.792969 29.414062 L 28.804688 29.414062 C 28.804688 34.585938 28.78125 39.71875 28.78125 44.890625 C 28.78125 48.183594 28.953125 51.199219 28.417969 52.125 C 27.539062 53.945312 25.273438 53.71875 24.238281 53.367188 C 23.183594 52.847656 22.648438 52.113281 22.027344 51.070312 C 21.859375 50.773438 21.730469 50.542969 21.6875 50.523438 C 20.0625 51.515625 18.445312 52.515625 16.820312 53.503906 C 17.628906 55.167969 18.824219 56.609375 20.351562 57.546875 C 22.632812 58.914062 25.699219 59.332031 28.902344 58.597656 C 30.988281 57.988281 32.789062 56.730469 33.734375 54.8125 C 35.097656 52.300781 34.804688 49.257812 34.792969 45.894531 C 34.824219 40.40625 34.792969 34.921875 34.792969 29.414062 Z M 34.792969 29.414062 "/>
</g>
</svg>
