<?xml version="1.0" encoding="UTF-8"?>
<svg xmlns="http://www.w3.org/2000/svg" xmlns:xlink="http://www.w3.org/1999/xlink" width="59pt" height="64" viewBox="0 0 59 64" version="1.1">
<g id="surface1">
<path style=" stroke:none;fill-rule:nonzero;fill:rgb(72.156863%,7.45098%,14.117647%);fill-opacity:1;" d="M 58.328125 0 L 50.15625 24.363281 C 52.460938 24.769531 54.421875 26.257812 55.421875 28.363281 C 56.421875 30.464844 56.332031 32.921875 55.183594 34.945312 C 56.871094 37.484375 57.582031 40.554688 57.042969 43.640625 C 56.46875 46.992188 54.398438 49.933594 51.351562 51.683594 C 50.15625 52.375 48.839844 52.867188 47.316406 53.246094 L 47.050781 53.308594 L 46.820312 53.363281 L 46.59375 53.414062 L 46.078125 53.519531 L 45.71875 53.589844 L 45.53125 53.621094 L 45.273438 53.667969 L 45.136719 53.691406 L 44.785156 53.746094 L 44.320312 53.820312 L 43.8125 53.898438 L 43.039062 54.007812 L 42.1875 54.132812 L 41.628906 54.214844 L 41.207031 54.28125 L 40.890625 54.332031 L 40.59375 54.382812 L 40.378906 54.421875 L 40.171875 54.457031 L 39.976562 54.496094 L 39.84375 54.519531 L 39.65625 54.558594 L 39.40625 54.613281 L 39.222656 54.652344 L 39.101562 54.679688 L 38.890625 54.730469 L 38.628906 54.792969 L 38.457031 54.839844 L 38.289062 54.882812 L 38.035156 54.953125 L 37.949219 54.976562 L 37.613281 55.070312 L 37.445312 55.121094 L 37.273438 55.171875 C 37.246094 55.179688 37.21875 55.191406 37.191406 55.199219 L 37.019531 55.253906 L 36.851562 55.304688 L 36.679688 55.363281 L 36.421875 55.449219 L 36.25 55.507812 L 36.078125 55.570312 L 35.902344 55.632812 L 35.726562 55.699219 L 35.460938 55.796875 L 35.28125 55.867188 L 34.914062 56.007812 L 34.726562 56.082031 L 34.539062 56.160156 L 34.347656 56.238281 L 34.058594 56.359375 L 33.761719 56.484375 L 33.558594 56.570312 L 33.25 56.707031 L 32.9375 56.847656 L 32.617188 56.992188 L 32.285156 57.144531 L 31.945312 57.296875 L 31.597656 57.460938 L 31.242188 57.628906 L 30.875 57.800781 L 30.5 57.984375 L 29.980469 58.234375 L 29.300781 58.566406 L 28.734375 58.84375 L 26.652344 59.871094 L 25.628906 60.367188 L 25.027344 60.65625 L 24.621094 60.847656 L 24.277344 61.003906 L 24.070312 61.101562 L 23.78125 61.230469 L 23.570312 61.324219 L 23.238281 61.46875 L 23.007812 61.570312 C 20.921875 62.476562 19.097656 63.109375 17.351562 63.5 C 13.070312 64.460938 9.300781 63.914062 5.808594 61.511719 C 1.4375 58.480469 -0.0390625 53.183594 0.980469 47.132812 L 0.996094 47.035156 L 1.027344 46.84375 L 1.066406 46.652344 L 1.101562 46.460938 L 1.160156 46.179688 L 1.203125 45.992188 L 1.246094 45.808594 L 1.316406 45.527344 C 1.363281 45.339844 1.410156 45.152344 1.464844 44.964844 L 1.519531 44.78125 L 1.636719 44.40625 L 1.664062 44.3125 L 1.726562 44.121094 L 1.757812 44.027344 L 1.890625 43.644531 L 1.964844 43.449219 L 2 43.351562 L 2.109375 43.054688 L 2.1875 42.855469 L 2.230469 42.753906 L 2.308594 42.550781 L 2.351562 42.449219 L 2.4375 42.242188 L 2.527344 42.03125 L 2.617188 41.816406 L 2.710938 41.601562 L 2.757812 41.492188 L 2.859375 41.269531 L 3.0625 40.816406 L 3.167969 40.582031 L 3.394531 40.105469 L 3.570312 39.734375 L 3.753906 39.351562 L 4.804688 37.191406 L 5.125 36.609375 C 2.8125 34.417969 2.226562 30.976562 3.6875 28.152344 C 5.144531 25.324219 8.300781 23.792969 11.4375 24.382812 C 14.574219 24.972656 16.949219 27.546875 17.269531 30.707031 C 17.589844 33.867188 15.78125 36.859375 12.824219 38.058594 L 12.765625 38.199219 L 12.34375 39.191406 C 11.203125 41.863281 12.292969 44.960938 14.878906 46.613281 L 14.945312 46.660156 L 15.0625 46.613281 C 17.59375 45.605469 19.953125 44.101562 22.066406 42.148438 L 22.1875 42.035156 C 23.535156 40.78125 24.734375 39.378906 25.769531 37.855469 C 22.964844 36.492188 21.367188 33.484375 21.808594 30.414062 C 22.246094 27.339844 24.625 24.898438 27.699219 24.363281 L 25.136719 16.726562 L 19.519531 0 Z M 38.933594 16.730469 L 34.84375 25.09375 L 34.164062 26.480469 C 35.441406 27.808594 36.15625 29.582031 36.152344 31.421875 C 36.152344 32.160156 36.039062 32.875 35.832031 33.542969 L 42.015625 33.542969 C 41.804688 32.855469 41.695312 32.140625 41.695312 31.421875 C 41.695312 29.515625 42.449219 27.78125 43.671875 26.496094 Z M 38.933594 16.730469 "/>
<path style=" stroke:none;fill-rule:nonzero;fill:rgb(94.901961%,94.901961%,94.901961%);fill-opacity:1;" d="M 58.328125 0 L 50.15625 24.363281 C 52.460938 24.769531 54.421875 26.257812 55.421875 28.363281 C 56.421875 30.464844 56.332031 32.921875 55.183594 34.945312 C 56.871094 37.484375 57.582031 40.554688 57.042969 43.640625 C 56.46875 46.992188 54.398438 49.933594 51.351562 51.683594 C 50.15625 52.375 48.839844 52.867188 47.316406 53.246094 L 47.050781 53.308594 L 46.820312 53.363281 L 46.59375 53.414062 L 46.078125 53.519531 L 45.71875 53.589844 L 45.53125 53.621094 L 45.273438 53.667969 L 45.136719 53.691406 L 44.785156 53.746094 L 44.320312 53.820312 L 43.8125 53.898438 L 43.039062 54.007812 L 42.1875 54.132812 L 41.628906 54.214844 L 41.207031 54.28125 L 40.890625 54.332031 L 40.59375 54.382812 L 40.378906 54.421875 L 40.171875 54.457031 L 39.976562 54.496094 L 39.84375 54.519531 L 39.65625 54.558594 L 39.40625 54.613281 L 39.222656 54.652344 L 39.101562 54.679688 L 38.890625 54.730469 L 38.628906 54.792969 L 38.457031 54.839844 L 38.289062 54.882812 L 38.035156 54.953125 L 37.949219 54.976562 L 37.613281 55.070312 L 37.445312 55.121094 L 37.273438 55.171875 C 37.246094 55.179688 37.21875 55.191406 37.191406 55.199219 L 37.019531 55.253906 L 36.851562 55.304688 L 36.679688 55.363281 L 36.421875 55.449219 L 36.25 55.507812 L 36.078125 55.570312 L 35.902344 55.632812 L 35.726562 55.699219 L 35.460938 55.796875 L 35.28125 55.867188 L 34.914062 56.007812 L 34.726562 56.082031 L 34.539062 56.160156 L 34.347656 56.238281 L 34.058594 56.359375 L 33.761719 56.484375 L 33.558594 56.570312 L 33.25 56.707031 L 32.9375 56.847656 L 32.617188 56.992188 L 32.285156 57.144531 L 31.945312 57.296875 L 31.597656 57.460938 L 31.242188 57.628906 L 30.875 57.800781 L 30.5 57.984375 L 29.980469 58.234375 L 29.300781 58.566406 L 28.734375 58.84375 L 26.652344 59.871094 L 25.628906 60.367188 L 25.027344 60.65625 L 24.621094 60.847656 L 24.277344 61.003906 L 24.070312 61.101562 L 23.78125 61.230469 L 23.570312 61.324219 L 23.238281 61.46875 L 23.007812 61.570312 C 20.921875 62.476562 19.097656 63.109375 17.351562 63.5 C 13.070312 64.460938 9.300781 63.914062 5.808594 61.511719 C 1.4375 58.480469 -0.0390625 53.183594 0.980469 47.132812 L 0.996094 47.035156 L 1.027344 46.84375 L 1.066406 46.652344 L 1.101562 46.460938 L 1.160156 46.179688 L 1.203125 45.992188 L 1.246094 45.808594 L 1.316406 45.527344 C 1.363281 45.339844 1.410156 45.152344 1.464844 44.964844 L 1.519531 44.78125 L 1.636719 44.40625 L 1.664062 44.3125 L 1.726562 44.121094 L 1.757812 44.027344 L 1.890625 43.644531 L 1.964844 43.449219 L 2 43.351562 L 2.109375 43.054688 L 2.1875 42.855469 L 2.230469 42.753906 L 2.308594 42.550781 L 2.351562 42.449219 L 2.4375 42.242188 L 2.527344 42.03125 L 2.617188 41.816406 L 2.710938 41.601562 L 2.757812 41.492188 L 2.859375 41.269531 L 3.0625 40.816406 L 3.167969 40.582031 L 3.394531 40.105469 L 3.570312 39.734375 L 3.753906 39.351562 L 4.804688 37.191406 L 5.125 36.609375 C 2.8125 34.417969 2.226562 30.976562 3.6875 28.152344 C 5.144531 25.324219 8.300781 23.792969 11.4375 24.382812 C 14.574219 24.972656 16.949219 27.546875 17.269531 30.707031 C 17.589844 33.867188 15.78125 36.859375 12.824219 38.058594 L 12.765625 38.199219 L 12.34375 39.191406 C 11.203125 41.863281 12.292969 44.960938 14.878906 46.613281 L 14.945312 46.660156 L 15.0625 46.613281 C 17.59375 45.605469 19.953125 44.101562 22.066406 42.148438 L 22.1875 42.035156 C 23.535156 40.78125 24.734375 39.378906 25.769531 37.855469 C 22.964844 36.492188 21.367188 33.484375 21.808594 30.414062 C 22.246094 27.339844 24.625 24.898438 27.699219 24.363281 L 25.136719 16.726562 L 19.519531 0 Z M 38.933594 16.730469 L 34.84375 25.09375 L 34.164062 26.480469 C 36.175781 28.578125 36.71875 31.679688 35.535156 34.328125 C 34.351562 36.980469 31.675781 38.660156 28.761719 38.585938 C 27.488281 40.632812 25.949219 42.5 24.1875 44.148438 C 21.59375 46.574219 18.644531 48.410156 15.464844 49.566406 L 15.308594 49.621094 L 14.71875 49.832031 L 14.15625 49.546875 C 9.984375 47.421875 7.976562 42.75 9.460938 38.5625 C 8.820312 38.507812 8.183594 38.363281 7.578125 38.140625 L 7.253906 38.8125 L 6.386719 40.597656 L 6.214844 40.953125 L 6.050781 41.296875 L 5.945312 41.519531 L 5.84375 41.738281 L 5.695312 42.0625 L 5.601562 42.273438 L 5.507812 42.476562 L 5.421875 42.679688 L 5.332031 42.878906 L 5.25 43.074219 L 5.167969 43.265625 L 5.011719 43.640625 L 4.941406 43.824219 L 4.867188 44.007812 L 4.800781 44.183594 L 4.734375 44.363281 C 4.722656 44.390625 4.710938 44.421875 4.703125 44.449219 L 4.636719 44.625 C 4.628906 44.652344 4.617188 44.683594 4.605469 44.710938 L 4.546875 44.882812 L 4.492188 45.050781 L 4.4375 45.222656 L 4.382812 45.386719 L 4.355469 45.472656 L 4.191406 46.046875 L 4.148438 46.210938 L 4.109375 46.375 L 4.066406 46.539062 L 4.050781 46.621094 L 4.011719 46.785156 L 3.976562 46.949219 L 3.867188 47.523438 L 3.855469 47.609375 C 3.003906 52.664062 4.167969 56.835938 7.472656 59.128906 C 10.246094 61.039062 13.179688 61.460938 16.710938 60.671875 C 18.214844 60.332031 19.824219 59.777344 21.6875 58.980469 L 22.066406 58.816406 L 22.28125 58.722656 L 22.507812 58.621094 L 22.828125 58.476562 L 23.191406 58.308594 L 23.761719 58.042969 L 24.40625 57.734375 L 25.367188 57.269531 L 26.660156 56.632812 L 27.742188 56.097656 L 28.175781 55.886719 L 28.601562 55.679688 L 29.144531 55.414062 L 29.671875 55.160156 L 29.929688 55.039062 L 30.304688 54.863281 L 30.671875 54.691406 L 31.027344 54.523438 L 31.375 54.367188 L 31.714844 54.210938 L 31.9375 54.113281 L 32.269531 53.96875 L 32.589844 53.828125 L 32.796875 53.738281 L 33.109375 53.609375 L 33.3125 53.523438 L 33.515625 53.441406 L 33.714844 53.363281 L 33.910156 53.28125 L 34.007812 53.242188 L 34.203125 53.167969 L 34.394531 53.09375 L 34.585938 53.023438 L 34.871094 52.917969 L 35.246094 52.785156 L 35.429688 52.71875 L 35.617188 52.65625 L 35.800781 52.597656 L 35.984375 52.535156 L 36.167969 52.476562 L 36.347656 52.421875 L 36.441406 52.394531 L 36.804688 52.285156 L 37.171875 52.179688 L 37.355469 52.128906 L 37.542969 52.078125 L 37.726562 52.03125 L 37.914062 51.984375 L 38.167969 51.921875 L 38.503906 51.839844 L 38.707031 51.796875 L 38.839844 51.765625 L 39.042969 51.722656 L 39.253906 51.679688 L 39.464844 51.640625 L 39.609375 51.613281 L 39.90625 51.558594 L 40.136719 51.519531 L 40.378906 51.480469 L 40.710938 51.425781 L 41.160156 51.351562 L 41.546875 51.296875 L 43.09375 51.070312 L 43.53125 51.003906 L 43.949219 50.941406 L 44.148438 50.90625 L 44.445312 50.859375 L 44.726562 50.8125 L 44.910156 50.78125 L 45.179688 50.730469 L 45.351562 50.699219 L 45.605469 50.652344 L 45.769531 50.621094 L 45.929688 50.585938 L 46.085938 50.554688 L 46.238281 50.519531 L 46.390625 50.488281 L 46.535156 50.453125 L 46.679688 50.421875 L 46.820312 50.386719 L 46.957031 50.347656 L 47.027344 50.332031 L 47.292969 50.261719 L 47.421875 50.222656 L 47.546875 50.183594 L 47.671875 50.148438 L 47.796875 50.105469 L 47.855469 50.085938 L 47.976562 50.046875 L 48.035156 50.027344 L 48.152344 49.984375 L 48.210938 49.964844 L 48.328125 49.921875 L 48.441406 49.875 L 48.550781 49.832031 L 48.664062 49.785156 L 48.882812 49.691406 L 48.988281 49.644531 L 49.042969 49.617188 L 49.152344 49.566406 L 49.203125 49.539062 L 49.417969 49.433594 L 49.628906 49.324219 L 49.734375 49.265625 L 49.835938 49.207031 L 49.890625 49.175781 C 52.191406 47.851562 53.742188 45.652344 54.167969 43.148438 C 54.523438 41.113281 54.164062 39.015625 53.15625 37.210938 C 50.144531 39.390625 45.960938 38.933594 43.5 36.15625 C 41.039062 33.375 41.113281 29.1875 43.671875 26.496094 Z M 28.945312 27.070312 C 26.53125 27.070312 24.570312 29.019531 24.570312 31.421875 C 24.570312 33.824219 26.53125 35.773438 28.945312 35.773438 C 31.363281 35.773438 33.320312 33.824219 33.320312 31.421875 C 33.320312 29.019531 31.363281 27.070312 28.945312 27.070312 Z M 48.902344 27.070312 C 46.488281 27.070312 44.527344 29.019531 44.527344 31.421875 C 44.527344 33.824219 46.488281 35.773438 48.902344 35.773438 C 51.320312 35.773438 53.28125 33.824219 53.28125 31.421875 C 53.28125 29.019531 51.320312 27.070312 48.902344 27.070312 Z M 10.097656 27.070312 C 7.679688 27.070312 5.71875 29.019531 5.71875 31.421875 C 5.71875 33.824219 7.679688 35.773438 10.097656 35.773438 C 12.511719 35.773438 14.472656 33.824219 14.472656 31.421875 C 14.472656 29.019531 12.511719 27.070312 10.097656 27.070312 Z M 54.273438 2.9375 L 23.578125 2.9375 L 30.816406 24.5 C 31.132812 24.585938 31.4375 24.6875 31.734375 24.8125 L 38.945312 10.074219 L 46.09375 24.820312 C 46.398438 24.691406 46.714844 24.585938 47.039062 24.5 Z M 54.273438 2.9375 "/>
</g>
</svg>
