<?xml version="1.0" encoding="UTF-8"?>
<svg xmlns="http://www.w3.org/2000/svg" xmlns:xlink="http://www.w3.org/1999/xlink" width="62pt" height="64" viewBox="0 0 62 64" version="1.1">
<g id="surface1">
<path style=" stroke:none;fill-rule:nonzero;fill:rgb(100%,17.647059%,12.54902%);fill-opacity:1;" d="M 61.535156 14.234375 C 61.558594 14.316406 61.570312 14.402344 61.570312 14.488281 L 61.570312 27.992188 C 61.570312 28.347656 61.378906 28.671875 61.074219 28.847656 L 49.652344 35.375 L 49.652344 48.308594 C 49.652344 48.660156 49.464844 48.984375 49.15625 49.160156 L 25.320312 62.78125 C 25.265625 62.8125 25.207031 62.832031 25.148438 62.851562 C 25.125 62.859375 25.105469 62.875 25.082031 62.878906 C 24.914062 62.921875 24.738281 62.921875 24.570312 62.878906 C 24.542969 62.871094 24.519531 62.859375 24.492188 62.847656 C 24.4375 62.828125 24.382812 62.8125 24.328125 62.78125 L 0.5 49.160156 C 0.191406 48.988281 0 48.660156 0 48.308594 L 0 7.796875 C 0 7.707031 0.0117188 7.621094 0.0351562 7.539062 C 0.0429688 7.507812 0.0585938 7.484375 0.0703125 7.453125 C 0.0898438 7.402344 0.105469 7.351562 0.132812 7.300781 C 0.152344 7.269531 0.179688 7.246094 0.199219 7.214844 C 0.230469 7.175781 0.253906 7.136719 0.289062 7.101562 C 0.316406 7.070312 0.355469 7.050781 0.386719 7.027344 C 0.421875 6.996094 0.457031 6.964844 0.496094 6.941406 L 12.414062 0.132812 C 12.71875 -0.0429688 13.097656 -0.0429688 13.40625 0.132812 L 25.320312 6.941406 L 25.324219 6.941406 C 25.363281 6.964844 25.398438 6.996094 25.433594 7.023438 C 25.464844 7.050781 25.5 7.070312 25.53125 7.097656 C 25.566406 7.136719 25.589844 7.175781 25.621094 7.214844 C 25.640625 7.246094 25.667969 7.269531 25.6875 7.300781 C 25.714844 7.351562 25.730469 7.402344 25.75 7.453125 C 25.761719 7.484375 25.777344 7.507812 25.785156 7.539062 C 25.808594 7.621094 25.820312 7.707031 25.820312 7.796875 L 25.820312 33.097656 L 35.75 27.425781 L 35.75 14.488281 C 35.75 14.402344 35.761719 14.316406 35.785156 14.234375 C 35.792969 14.203125 35.808594 14.175781 35.820312 14.148438 C 35.839844 14.097656 35.855469 14.042969 35.882812 13.996094 C 35.902344 13.964844 35.929688 13.9375 35.953125 13.910156 C 35.980469 13.871094 36.007812 13.828125 36.039062 13.792969 C 36.070312 13.765625 36.105469 13.746094 36.136719 13.71875 C 36.175781 13.691406 36.207031 13.660156 36.246094 13.636719 L 48.164062 6.824219 C 48.472656 6.648438 48.851562 6.648438 49.15625 6.824219 L 61.074219 13.636719 C 61.117188 13.660156 61.148438 13.691406 61.183594 13.71875 C 61.214844 13.742188 61.253906 13.765625 61.28125 13.792969 C 61.316406 13.828125 61.339844 13.871094 61.371094 13.910156 C 61.390625 13.9375 61.417969 13.964844 61.4375 13.996094 C 61.464844 14.042969 61.480469 14.097656 61.5 14.148438 C 61.511719 14.175781 61.527344 14.203125 61.535156 14.234375 Z M 59.585938 27.425781 L 59.585938 16.195312 L 55.414062 18.578125 L 49.652344 21.871094 L 49.652344 33.097656 Z M 47.667969 47.738281 L 47.667969 36.5 L 42 39.714844 L 25.820312 48.878906 L 25.820312 60.222656 Z M 1.988281 9.5 L 1.988281 47.738281 L 23.832031 60.222656 L 23.832031 48.882812 L 12.417969 42.46875 L 12.410156 42.464844 C 12.371094 42.441406 12.339844 42.410156 12.304688 42.382812 C 12.273438 42.359375 12.238281 42.339844 12.210938 42.3125 L 12.207031 42.308594 C 12.175781 42.277344 12.152344 42.238281 12.125 42.207031 C 12.101562 42.171875 12.070312 42.144531 12.050781 42.109375 L 12.050781 42.105469 C 12.027344 42.070312 12.015625 42.023438 12 41.984375 C 11.980469 41.945312 11.960938 41.910156 11.949219 41.871094 C 11.9375 41.824219 11.9375 41.773438 11.929688 41.726562 C 11.925781 41.691406 11.917969 41.652344 11.917969 41.617188 L 11.917969 15.175781 L 6.15625 11.882812 Z M 12.910156 2.125 L 2.980469 7.796875 L 12.910156 13.46875 L 22.835938 7.792969 Z M 18.074219 37.523438 L 23.835938 34.234375 L 23.835938 9.5 L 19.664062 11.882812 L 13.902344 15.175781 L 13.902344 39.910156 Z M 48.660156 8.816406 L 38.734375 14.488281 L 48.660156 20.164062 L 58.585938 14.488281 Z M 47.667969 21.871094 L 41.90625 18.578125 L 37.738281 16.195312 L 37.738281 27.425781 L 43.496094 30.714844 L 47.667969 33.097656 Z M 24.824219 47.175781 L 39.386719 38.925781 L 46.664062 34.800781 L 36.746094 29.132812 L 25.324219 35.660156 L 14.914062 41.605469 Z M 24.824219 47.175781 "/>
</g>
</svg>
