<?xml version="1.0" encoding="UTF-8"?>
<svg xmlns="http://www.w3.org/2000/svg" xmlns:xlink="http://www.w3.org/1999/xlink" width="77pt" height="64" viewBox="0 0 77 64" version="1.1">
<g id="surface1">
<path style=" stroke:none;fill-rule:nonzero;fill:rgb(40%,49.019608%,100%);fill-opacity:1;" d="M 64.414062 4.535156 L 66.039062 6.710938 C 66.464844 7.285156 66.355469 8.097656 65.792969 8.539062 L 64.070312 9.875 C 64.382812 10.722656 64.582031 11.628906 64.664062 12.550781 L 66.628906 12.828125 C 67.328125 12.921875 67.816406 13.585938 67.722656 14.300781 L 67.359375 17.011719 C 67.265625 17.726562 66.613281 18.230469 65.914062 18.128906 L 63.769531 17.828125 C 63.394531 18.664062 62.90625 19.445312 62.324219 20.148438 L 63.523438 21.757812 C 63.949219 22.335938 63.839844 23.148438 63.273438 23.589844 L 61.136719 25.242188 C 60.867188 25.449219 60.523438 25.539062 60.1875 25.492188 C 59.851562 25.445312 59.542969 25.265625 59.339844 24.992188 L 58.03125 23.238281 C 57.179688 23.558594 56.292969 23.761719 55.390625 23.84375 L 55.121094 25.839844 C 55.027344 26.554688 54.375 27.050781 53.675781 26.957031 L 51.011719 26.585938 C 50.304688 26.484375 49.816406 25.824219 49.914062 25.113281 L 50.207031 22.933594 C 49.386719 22.546875 48.621094 22.050781 47.929688 21.464844 L 46.347656 22.683594 C 46.078125 22.890625 45.734375 22.984375 45.398438 22.9375 C 45.058594 22.890625 44.753906 22.710938 44.550781 22.433594 L 42.925781 20.257812 C 42.5 19.683594 42.609375 18.871094 43.171875 18.429688 L 44.894531 17.09375 C 44.578125 16.234375 44.378906 15.332031 44.300781 14.414062 L 42.335938 14.140625 C 41.632812 14.039062 41.140625 13.378906 41.242188 12.667969 L 41.605469 9.957031 C 41.703125 9.242188 42.351562 8.746094 43.054688 8.839844 L 45.195312 9.140625 C 45.574219 8.304688 46.058594 7.527344 46.636719 6.820312 L 45.441406 5.210938 C 45.011719 4.636719 45.121094 3.824219 45.683594 3.386719 L 47.820312 1.734375 C 48.089844 1.523438 48.433594 1.433594 48.773438 1.480469 C 49.109375 1.527344 49.414062 1.707031 49.621094 1.984375 L 50.929688 3.738281 C 51.777344 3.414062 52.660156 3.210938 53.5625 3.132812 L 53.832031 1.136719 C 53.925781 0.421875 54.574219 -0.0820312 55.277344 0.0117188 L 57.941406 0.382812 C 58.644531 0.476562 59.140625 1.140625 59.039062 1.855469 L 58.746094 4.035156 C 59.570312 4.421875 60.335938 4.917969 61.03125 5.511719 L 62.609375 4.292969 C 62.882812 4.082031 63.222656 3.988281 63.5625 4.03125 C 63.902344 4.078125 64.207031 4.257812 64.414062 4.535156 Z M 18.59375 42.816406 L 18.59375 32.289062 L 23.921875 32.289062 C 24.910156 32.289062 25.660156 32.371094 26.183594 32.550781 C 26.703125 32.722656 27.128906 33.042969 27.441406 33.507812 C 27.761719 33.980469 27.925781 34.546875 27.925781 35.21875 C 27.925781 35.796875 27.800781 36.308594 27.554688 36.730469 C 27.3125 37.15625 26.972656 37.5 26.546875 37.765625 C 26.277344 37.929688 25.898438 38.070312 25.425781 38.175781 C 25.804688 38.3125 26.082031 38.433594 26.25 38.566406 C 26.371094 38.65625 26.539062 38.839844 26.757812 39.121094 C 26.980469 39.402344 27.128906 39.625 27.203125 39.777344 L 28.757812 42.820312 L 25.148438 42.820312 L 23.445312 39.613281 C 23.222656 39.199219 23.035156 38.921875 22.867188 38.800781 C 22.636719 38.644531 22.363281 38.558594 22.085938 38.558594 L 21.804688 38.558594 L 21.804688 42.820312 L 18.59375 42.820312 Z M 29.863281 61.140625 L 23.894531 61.140625 L 23.035156 64 L 17.660156 64 L 24.070312 46.65625 L 29.835938 46.65625 L 36.222656 64 L 30.707031 64 Z M 28.746094 57.382812 L 26.882812 51.144531 L 25.015625 57.386719 L 28.746094 57.386719 Z M 37.460938 46.65625 L 46.222656 46.65625 C 48.136719 46.65625 49.5625 47.113281 50.507812 48.039062 C 51.457031 48.964844 51.933594 50.285156 51.933594 51.988281 C 51.933594 53.742188 51.410156 55.113281 50.378906 56.101562 C 49.34375 57.089844 47.757812 57.582031 45.632812 57.582031 L 42.746094 57.582031 L 42.746094 64 L 37.460938 64 Z M 42.746094 54.066406 L 44.042969 54.066406 C 45.0625 54.066406 45.785156 53.890625 46.199219 53.527344 C 46.613281 53.167969 46.820312 52.703125 46.820312 52.148438 C 46.820312 51.605469 46.636719 51.140625 46.28125 50.761719 C 45.921875 50.386719 45.246094 50.195312 44.253906 50.195312 L 42.746094 50.195312 Z M 54.0625 46.65625 L 59.34375 46.65625 L 59.34375 64 L 54.0625 64 Z M 21.800781 36.5625 L 23.148438 36.5625 C 23.292969 36.5625 23.578125 36.511719 23.996094 36.414062 C 24.203125 36.375 24.390625 36.257812 24.515625 36.085938 C 24.648438 35.910156 24.71875 35.695312 24.714844 35.472656 C 24.714844 35.136719 24.609375 34.867188 24.398438 34.6875 C 24.183594 34.503906 23.789062 34.414062 23.207031 34.414062 L 21.800781 34.414062 Z M 29.371094 32.289062 L 37.925781 32.289062 L 37.925781 34.535156 L 32.582031 34.535156 L 32.582031 36.214844 L 37.539062 36.214844 L 37.539062 38.355469 L 32.582031 38.355469 L 32.582031 40.429688 L 38.082031 40.429688 L 38.082031 42.808594 L 29.371094 42.808594 Z M 38.839844 39.332031 L 41.875 39.140625 C 41.9375 39.644531 42.074219 40.019531 42.277344 40.28125 C 42.609375 40.703125 43.078125 40.921875 43.683594 40.921875 C 44.136719 40.921875 44.492188 40.8125 44.738281 40.59375 C 44.984375 40.378906 45.105469 40.125 45.105469 39.835938 C 45.105469 39.5625 44.988281 39.320312 44.757812 39.101562 C 44.523438 38.886719 43.980469 38.6875 43.121094 38.488281 C 41.722656 38.171875 40.726562 37.742188 40.125 37.214844 C 39.523438 36.683594 39.222656 36.007812 39.222656 35.183594 C 39.222656 34.644531 39.378906 34.132812 39.6875 33.65625 C 39.992188 33.175781 40.457031 32.792969 41.078125 32.519531 C 41.699219 32.246094 42.542969 32.109375 43.621094 32.109375 C 44.945312 32.109375 45.945312 32.359375 46.640625 32.863281 C 47.332031 33.367188 47.746094 34.160156 47.875 35.253906 L 44.875 35.441406 C 44.792969 34.960938 44.625 34.613281 44.375 34.402344 C 44.117188 34.183594 43.761719 34.078125 43.316406 34.078125 C 42.945312 34.078125 42.664062 34.160156 42.476562 34.320312 C 42.296875 34.460938 42.195312 34.675781 42.195312 34.90625 C 42.195312 35.070312 42.277344 35.21875 42.425781 35.359375 C 42.574219 35.492188 42.925781 35.625 43.492188 35.746094 C 44.886719 36.054688 45.890625 36.367188 46.492188 36.679688 C 47.09375 36.992188 47.539062 37.378906 47.808594 37.847656 C 48.085938 38.304688 48.222656 38.828125 48.222656 39.402344 C 48.222656 40.078125 48.039062 40.699219 47.671875 41.265625 C 47.296875 41.839844 46.761719 42.292969 46.136719 42.558594 C 45.476562 42.851562 44.648438 43 43.648438 43 C 41.894531 43 40.671875 42.65625 39.992188 41.964844 C 39.316406 41.265625 38.933594 40.390625 38.839844 39.332031 Z M 48.6875 32.289062 L 58.40625 32.289062 L 58.40625 34.890625 L 55.148438 34.890625 L 55.148438 42.816406 L 51.949219 42.816406 L 51.949219 34.890625 L 48.6875 34.890625 Z M 37.933594 7.3125 C 36.78125 7.222656 35.625 7.234375 34.480469 7.347656 C 30.953125 7.691406 27.523438 9 24.691406 11.242188 C 21.414062 13.824219 18.925781 17.691406 17.964844 22.8125 L 17.664062 24.414062 L 16.097656 24.691406 C 14.5625 24.96875 13.191406 25.34375 11.988281 25.824219 C 10.882812 26.25 9.835938 26.820312 8.875 27.519531 C 8.175781 28.035156 7.539062 28.632812 6.988281 29.304688 C 5.339844 31.316406 4.574219 33.832031 4.59375 36.386719 C 4.613281 38.976562 5.441406 41.59375 6.96875 43.742188 C 7.539062 44.542969 8.203125 45.273438 8.949219 45.910156 C 9.726562 46.566406 10.597656 47.101562 11.539062 47.492188 C 12.082031 47.722656 12.664062 47.914062 13.273438 48.066406 L 13.273438 52.84375 C 12.078125 52.628906 10.910156 52.285156 9.789062 51.816406 C 8.414062 51.246094 7.136719 50.464844 5.996094 49.503906 C 4.957031 48.617188 4.03125 47.605469 3.238281 46.492188 C 1.160156 43.539062 0.0273438 40.015625 0 36.398438 C -0.0234375 32.789062 1.078125 29.199219 3.460938 26.289062 C 4.253906 25.316406 5.167969 24.453125 6.179688 23.710938 C 7.390625 22.820312 8.773438 22.066406 10.339844 21.445312 C 11.460938 21.007812 12.613281 20.648438 13.785156 20.375 C 15.164062 14.800781 18.105469 10.503906 21.882812 7.527344 C 25.417969 4.738281 29.671875 3.113281 34.054688 2.683594 C 36.359375 2.460938 38.6875 2.566406 40.964844 3 C 40.914062 3.207031 40.875 3.421875 40.847656 3.636719 L 40.839844 3.675781 C 40.796875 4.039062 40.777344 4.402344 40.796875 4.773438 C 40.316406 4.964844 39.863281 5.222656 39.457031 5.542969 L 39.4375 5.554688 C 38.820312 6.03125 38.308594 6.628906 37.933594 7.3125 Z M 71.089844 19.558594 C 71.441406 19.882812 71.777344 20.222656 72.109375 20.585938 C 72.78125 21.320312 73.414062 22.148438 74.007812 23.074219 C 76.011719 26.210938 77.042969 30.402344 77 34.503906 C 76.953125 38.527344 75.890625 42.535156 73.707031 45.484375 C 72.285156 47.402344 70.460938 48.972656 68.277344 50.214844 C 66.777344 51.070312 65.09375 51.78125 63.257812 52.351562 L 63.257812 47.410156 C 64.246094 47.03125 65.167969 46.613281 66.011719 46.132812 C 67.660156 45.195312 69.007812 44.054688 70.015625 42.683594 C 71.585938 40.558594 72.355469 37.554688 72.386719 34.472656 C 72.425781 31.238281 71.648438 27.992188 70.136719 25.628906 C 69.722656 24.976562 69.25 24.359375 68.726562 23.785156 C 68.535156 23.582031 68.339844 23.382812 68.136719 23.1875 C 68.171875 22.867188 68.179688 22.542969 68.164062 22.21875 C 68.644531 22.027344 69.09375 21.765625 69.503906 21.445312 L 69.523438 21.433594 C 70.167969 20.929688 70.707031 20.292969 71.089844 19.558594 Z M 55.195312 8.164062 C 58.085938 8.566406 60.101562 11.277344 59.707031 14.21875 C 59.3125 17.160156 56.648438 19.21875 53.761719 18.816406 C 50.871094 18.414062 48.847656 15.703125 49.25 12.761719 C 49.648438 9.820312 52.308594 7.761719 55.195312 8.164062 Z M 55.195312 8.164062 "/>
</g>
</svg>
