<?xml version="1.0" encoding="UTF-8"?>
<svg xmlns="http://www.w3.org/2000/svg" xmlns:xlink="http://www.w3.org/1999/xlink" width="105pt" height="64" viewBox="0 0 105 64" version="1.1">
<g id="surface1">
<path style=" stroke:none;fill-rule:nonzero;fill:rgb(2.352941%,71.372549%,83.137255%);fill-opacity:1;" d="M 52.5 0.015625 C 38.503906 0.015625 29.757812 7.0625 26.257812 21.152344 C 31.507812 14.105469 37.628906 11.464844 44.628906 13.226562 C 48.621094 14.230469 51.472656 17.144531 54.632812 20.375 C 59.777344 25.632812 65.734375 31.71875 78.742188 31.71875 C 92.734375 31.71875 101.484375 24.671875 104.980469 10.582031 C 99.734375 17.628906 93.609375 20.269531 86.609375 18.511719 C 82.621094 17.503906 79.765625 14.585938 76.609375 11.359375 C 71.464844 6.101562 65.507812 0.015625 52.5 0.015625 Z M 26.257812 31.71875 C 12.265625 31.71875 3.515625 38.761719 0.0195312 52.851562 C 5.265625 45.808594 11.390625 43.164062 18.390625 44.925781 C 22.378906 45.933594 25.234375 48.851562 28.390625 52.074219 C 33.535156 57.335938 39.492188 63.417969 52.5 63.417969 C 66.496094 63.417969 75.242188 56.375 78.742188 42.285156 C 73.492188 49.332031 67.371094 51.972656 60.371094 50.210938 C 56.378906 49.207031 53.527344 46.289062 50.367188 43.0625 C 45.222656 37.804688 39.265625 31.71875 26.257812 31.71875 Z M 26.257812 31.71875 "/>
</g>
</svg>
