<?xml version="1.0" encoding="UTF-8" standalone="no"?>
<!-- Created with Inkscape (http://www.inkscape.org/) -->

<svg
   xmlns:dc="http://purl.org/dc/elements/1.1/"
   xmlns:cc="http://creativecommons.org/ns#"
   xmlns:rdf="http://www.w3.org/1999/02/22-rdf-syntax-ns#"
   xmlns:svg="http://www.w3.org/2000/svg"
   xmlns="http://www.w3.org/2000/svg"
   xmlns:sodipodi="http://sodipodi.sourceforge.net/DTD/sodipodi-0.dtd"
   xmlns:inkscape="http://www.inkscape.org/namespaces/inkscape"
   width="95.7528mm"
   height="128.83092mm"
   viewBox="0 0 95.7528 128.83092"
   version="1.1"
   id="svg8"
   inkscape:version="0.92.5 (2060ec1f9f, 2020-04-08)"
   sodipodi:docname="drawing.svg">
  <defs
     id="defs2" />
  <sodipodi:namedview
     id="base"
     pagecolor="#ffffff"
     bordercolor="#666666"
     borderopacity="1.0"
     inkscape:pageopacity="0.0"
     inkscape:pageshadow="2"
     inkscape:zoom="1.979899"
     inkscape:cx="196.45714"
     inkscape:cy="286.64536"
     inkscape:document-units="mm"
     inkscape:current-layer="layer1"
     showgrid="false"
     showguides="true"
     inkscape:guide-bbox="true"
     inkscape:window-width="3000"
     inkscape:window-height="1862"
     inkscape:window-x="0"
     inkscape:window-y="0"
     inkscape:window-maximized="1"
     fit-margin-top="0"
     fit-margin-left="0"
     fit-margin-right="0"
     fit-margin-bottom="0" />
  <metadata
     id="metadata5">
    <rdf:RDF>
      <cc:Work
         rdf:about="">
        <dc:format>image/svg+xml</dc:format>
        <dc:type
           rdf:resource="http://purl.org/dc/dcmitype/StillImage" />
        <dc:title></dc:title>
      </cc:Work>
    </rdf:RDF>
  </metadata>
  <g
     inkscape:label="Layer 1"
     inkscape:groupmode="layer"
     id="layer1"
     transform="translate(-10.418594,-6.1117803)">
    <g
       id="surface1"
       transform="matrix(0.26458333,0,0,0.26458333,14.222365,45.151001)">
      <path
         id="path3721"
         d="M 0,0.5625 36,62.859375 72,0.5625 H 57.601562 L 36,37.941406 14.21875,0.5625 Z m 0,0"
         style="fill:#3db07d;fill-opacity:1;fill-rule:nonzero;stroke:none"
         inkscape:connector-curvature="0" />
      <path
         id="path3723"
         d="m 14.117188,0.386719 21.828124,38.125 21.644532,-38.125 H 44.242188 L 35.945312,15.050781 27.464844,0.382812 Z m 0,0"
         style="fill:#334f6b;fill-opacity:1;fill-rule:nonzero;stroke:none"
         inkscape:connector-curvature="0" />
    </g>
    <g
       id="surface1-3"
       transform="matrix(0.32087,0,0,0.32087,13.396896,77.409214)">
      <path
         id="path3737"
         d="m 28.773438,14.015625 c -1.664063,-2.859375 -5.820313,-2.859375 -7.484376,0 l -18.125,31.164063 c -1.660156,2.859374 0.417969,6.433593 3.742188,6.433593 h 14.152344 c -1.421875,-1.242187 -1.949219,-3.390625 -0.875,-5.234375 l 13.726562,-23.53125 z m 0,0"
         style="fill:#7feebf;fill-opacity:1;fill-rule:evenodd;stroke:none"
         inkscape:connector-curvature="0" />
      <path
         id="path3739"
         d="m 40.257812,20.851562 c 1.375,-2.339843 4.816407,-2.339843 6.195313,0 l 14.996094,25.496094 c 1.378906,2.339844 -0.34375,5.265625 -3.09375,5.265625 h -30 c -2.753907,0 -4.472657,-2.925781 -3.097657,-5.265625 z m 0,0"
         style="fill:#00dc7f;fill-opacity:1;fill-rule:nonzero;stroke:none"
         inkscape:connector-curvature="0" />
    </g>
    <g
       id="surface1-7"
       transform="matrix(0.18819219,0,0,0.18819219,13.867275,115.64507)">
      <path
         id="path3766"
         d="m 52.5,0.015625 c -13.996094,0 -22.742188,7.046875 -26.242188,21.136719 5.25,-7.046875 11.371094,-9.6875 18.371094,-7.925782 3.992188,1.003907 6.84375,3.917969 10.003906,7.148438 5.144532,5.257812 11.101563,11.34375 24.109376,11.34375 13.992187,0 22.742192,-7.046875 26.238282,-21.136719 -5.246095,7.046875 -11.371095,9.6875 -18.371095,7.929688 -3.988281,-1.007813 -6.84375,-3.925781 -10,-7.152344 C 71.464844,6.101562 65.507812,0.015625 52.5,0.015625 Z M 26.257812,31.71875 c -13.992187,0 -22.742187,7.042969 -26.2382808,21.132812 5.2460938,-7.042968 11.3710938,-9.6875 18.3710938,-7.925781 3.988281,1.007813 6.84375,3.925781 10,7.148438 5.144531,5.261719 11.101563,11.34375 24.109375,11.34375 13.996094,0 22.742188,-7.042969 26.242188,-21.132813 -5.25,7.046875 -11.371094,9.6875 -18.371094,7.925782 C 56.378906,49.207031 53.527344,46.289062 50.367188,43.0625 45.222656,37.804688 39.265625,31.71875 26.257812,31.71875 Z m 0,0"
         style="fill:#05b5d4;fill-opacity:1;fill-rule:nonzero;stroke:none"
         inkscape:connector-curvature="0" />
    </g>
    <text
       xml:space="preserve"
       style="font-style:normal;font-weight:normal;font-size:10.58333302px;line-height:1.25;font-family:sans-serif;letter-spacing:0px;word-spacing:0px;fill:#000000;fill-opacity:1;stroke:none;stroke-width:0.26458332"
       x="42.362232"
       y="23.176468"
       id="text3785"><tspan
         sodipodi:role="line"
         id="tspan3783"
         x="42.362232"
         y="23.176468"
         style="font-style:normal;font-variant:normal;font-weight:normal;font-stretch:normal;font-size:10.58333302px;font-family:'Nimbus Sans';-inkscape-font-specification:'Nimbus Sans, Normal';font-variant-ligatures:normal;font-variant-caps:normal;font-variant-numeric:normal;font-feature-settings:normal;text-align:start;writing-mode:lr-tb;text-anchor:start;stroke-width:0.26458332">Laravel</tspan></text>
    <g
       id="surface1-6"
       transform="matrix(0.29496011,0,0,0.29496011,14.666971,10.162271)">
      <path
         id="path3753"
         d="m 61.535156,14.234375 c 0.02344,0.08203 0.03516,0.167969 0.03516,0.253906 v 13.503907 c 0,0.355468 -0.191406,0.679687 -0.496093,0.855468 L 49.652344,35.375 v 12.933594 c 0,0.351562 -0.1875,0.675781 -0.496094,0.851562 L 25.320312,62.78125 c -0.05469,0.03125 -0.113281,0.05078 -0.171874,0.07031 -0.02344,0.0078 -0.04297,0.02344 -0.06641,0.02734 -0.167969,0.04297 -0.34375,0.04297 -0.511719,0 -0.02734,-0.0078 -0.05078,-0.01953 -0.07812,-0.03125 -0.05469,-0.01953 -0.109376,-0.03516 -0.164063,-0.06641 L 0.5,49.160156 C 0.191406,48.988281 0,48.660156 0,48.308594 V 7.796875 C 0,7.707031 0.0117188,7.621094 0.0351562,7.539062 0.0429688,7.507812 0.0585938,7.484375 0.0703125,7.453125 0.0898438,7.402344 0.105469,7.351562 0.132812,7.300781 0.152344,7.269531 0.179688,7.246094 0.199219,7.214844 0.230469,7.175781 0.253906,7.136719 0.289062,7.101562 0.316406,7.070312 0.355469,7.050781 0.386719,7.027344 0.421875,6.996094 0.457031,6.964844 0.496094,6.941406 L 12.414062,0.132812 c 0.304688,-0.1757808 0.683594,-0.1757808 0.992188,0 l 11.914062,6.808594 h 0.0039 c 0.03906,0.023438 0.07422,0.054688 0.109375,0.082032 0.03125,0.027343 0.06641,0.046874 0.09766,0.074218 0.03516,0.039063 0.05859,0.078125 0.08984,0.117188 0.01953,0.03125 0.04687,0.054687 0.06641,0.085937 0.02734,0.050781 0.04297,0.101563 0.0625,0.152344 0.01172,0.03125 0.02734,0.054687 0.03516,0.085937 0.02344,0.082032 0.03516,0.167969 0.03516,0.257813 V 33.097656 L 35.75,27.425781 v -12.9375 c 0,-0.08594 0.01172,-0.171875 0.03516,-0.253906 0.0078,-0.03125 0.02344,-0.05859 0.03516,-0.08594 0.01953,-0.05078 0.03516,-0.105469 0.0625,-0.152344 0.01953,-0.03125 0.04688,-0.05859 0.07031,-0.08594 0.02734,-0.03906 0.05469,-0.08203 0.08594,-0.117187 0.03125,-0.02734 0.06641,-0.04687 0.09766,-0.07422 0.03906,-0.02734 0.07031,-0.05859 0.109375,-0.08203 l 11.917968,-6.8125 c 0.308594,-0.175781 0.6875,-0.175781 0.992188,0 l 11.917969,6.8125 c 0.04297,0.02344 0.07422,0.05469 0.109375,0.08203 0.03125,0.02344 0.07031,0.04687 0.09766,0.07422 0.03516,0.03516 0.05859,0.07813 0.08984,0.117187 0.01953,0.02734 0.04687,0.05469 0.06641,0.08594 0.02734,0.04687 0.04297,0.101562 0.0625,0.152344 0.01172,0.02734 0.02734,0.05469 0.03516,0.08594 z M 59.585938,27.425781 V 16.195312 l -4.171876,2.382813 -5.761718,3.292969 v 11.226562 z m -11.917969,20.3125 V 36.5 L 42,39.714844 25.820312,48.878906 v 11.34375 z M 1.988281,9.5 v 38.238281 l 21.84375,12.484375 V 48.882812 l -11.414062,-6.414062 -0.0078,-0.0039 c -0.03906,-0.02344 -0.07031,-0.05469 -0.105468,-0.08203 -0.03125,-0.02344 -0.06641,-0.04297 -0.09375,-0.07031 l -0.0039,-0.0039 c -0.03125,-0.03125 -0.05469,-0.07031 -0.08203,-0.101563 -0.02344,-0.03516 -0.05469,-0.0625 -0.07422,-0.09766 v -0.0039 c -0.02344,-0.03516 -0.03516,-0.08203 -0.05078,-0.121094 -0.01953,-0.03906 -0.03906,-0.07422 -0.05078,-0.113281 -0.01172,-0.04687 -0.01172,-0.09766 -0.01953,-0.144532 -0.0039,-0.03516 -0.01172,-0.07422 -0.01172,-0.109374 V 15.175781 L 6.15625,11.882812 Z M 12.910156,2.125 2.980469,7.796875 12.910156,13.46875 22.835938,7.792969 Z m 5.164063,35.398438 5.761719,-3.289063 V 9.5 l -4.171876,2.382812 -5.761718,3.292969 v 24.734375 z m 30.585937,-28.707032 -9.925781,5.671875 9.925781,5.675781 9.925782,-5.675781 z M 47.667969,21.871094 41.90625,18.578125 37.738281,16.195312 v 11.230469 l 5.757813,3.289063 4.171875,2.382812 z m -22.84375,25.304687 14.5625,-8.25 7.277343,-4.125 -9.917968,-5.667969 -11.421875,6.527344 -10.410157,5.945313 z m 0,0"
         style="fill:#ff2b1e;fill-opacity:1;fill-rule:nonzero;stroke:none"
         inkscape:connector-curvature="0" />
    </g>
    <rect
       id="rect3827-6"
       width="26.192413"
       height="26.192413"
       x="10.651158"
       y="6.3443861"
       style="opacity:0.21799999;fill:none;stroke:#000000;stroke-width:0.465;stroke-linecap:round;stroke-linejoin:round;stroke-miterlimit:4;stroke-dasharray:0.0465, 0.0465;stroke-dashoffset:0;stroke-opacity:1"
       ry="3.2072344" />
    <text
       xml:space="preserve"
       style="font-style:normal;font-weight:normal;font-size:10.58333302px;line-height:1.25;font-family:sans-serif;letter-spacing:0px;word-spacing:0px;fill:#000000;fill-opacity:1;stroke:none;stroke-width:0.26458332"
       x="43.042225"
       y="56.221455"
       id="text3785-9"><tspan
         sodipodi:role="line"
         id="tspan3783-2"
         x="43.042225"
         y="56.221455"
         style="font-style:normal;font-variant:normal;font-weight:normal;font-stretch:normal;font-size:10.58333302px;font-family:'Nimbus Sans';-inkscape-font-specification:'Nimbus Sans, Normal';font-variant-ligatures:normal;font-variant-caps:normal;font-variant-numeric:normal;font-feature-settings:normal;text-align:start;writing-mode:lr-tb;text-anchor:start;stroke-width:0.26458332">Vue.js</tspan></text>
    <rect
       id="rect3827-6-7"
       width="26.192413"
       height="26.192413"
       x="10.651158"
       y="40.421249"
       style="opacity:0.21799999;fill:none;stroke:#000000;stroke-width:0.465;stroke-linecap:round;stroke-linejoin:round;stroke-miterlimit:4;stroke-dasharray:0.0465, 0.0465;stroke-dashoffset:0;stroke-opacity:1"
       ry="2.6726952" />
    <text
       xml:space="preserve"
       style="font-style:normal;font-weight:normal;font-size:10.58333302px;line-height:1.25;font-family:sans-serif;letter-spacing:0px;word-spacing:0px;fill:#000000;fill-opacity:1;stroke:none;stroke-width:0.26458332"
       x="43.722218"
       y="90.29837"
       id="text3785-9-0"><tspan
         sodipodi:role="line"
         id="tspan3783-2-2"
         x="43.722218"
         y="90.29837"
         style="font-style:normal;font-variant:normal;font-weight:normal;font-stretch:normal;font-size:10.58333302px;font-family:'Nimbus Sans';-inkscape-font-specification:'Nimbus Sans, Normal';font-variant-ligatures:normal;font-variant-caps:normal;font-variant-numeric:normal;font-feature-settings:normal;text-align:start;writing-mode:lr-tb;text-anchor:start;stroke-width:0.26458332">Nuxt.js</tspan></text>
    <rect
       id="rect3827-6-7-1"
       width="26.192413"
       height="26.192413"
       x="10.651117"
       y="74.498123"
       style="opacity:0.21799999;fill:none;stroke:#000000;stroke-width:0.465;stroke-linecap:round;stroke-linejoin:round;stroke-miterlimit:4;stroke-dasharray:0.0465, 0.0465;stroke-dashoffset:0;stroke-opacity:1"
       ry="2.80633" />
    <text
       xml:space="preserve"
       style="font-style:normal;font-weight:normal;font-size:10.58333302px;line-height:1.25;font-family:sans-serif;letter-spacing:0px;word-spacing:0px;fill:#000000;fill-opacity:1;stroke:none;stroke-width:0.26458332"
       x="44.41782"
       y="125.41334"
       id="text3785-9-0-4"><tspan
         sodipodi:role="line"
         id="tspan3783-2-2-6"
         x="44.41782"
         y="125.41334"
         style="font-style:normal;font-variant:normal;font-weight:normal;font-stretch:normal;font-size:10.58333302px;font-family:'Nimbus Sans';-inkscape-font-specification:'Nimbus Sans, Normal';font-variant-ligatures:normal;font-variant-caps:normal;font-variant-numeric:normal;font-feature-settings:normal;text-align:start;writing-mode:lr-tb;text-anchor:start;stroke-width:0.26458332">Tailwind CSS</tspan></text>
    <rect
       id="rect3827-6-7-1-2"
       width="26.192413"
       height="26.192413"
       x="10.651158"
       y="108.51775"
       style="opacity:0.21799999;fill:none;stroke:#000000;stroke-width:0.465;stroke-linecap:round;stroke-linejoin:round;stroke-miterlimit:4;stroke-dasharray:0.0465, 0.0465;stroke-dashoffset:0;stroke-opacity:1"
       ry="2.6726952" />
  </g>
</svg>
