<?xml version="1.0" encoding="UTF-8"?>
<svg xmlns="http://www.w3.org/2000/svg" xmlns:xlink="http://www.w3.org/1999/xlink" width="64pt" height="64" viewBox="0 0 64 64" version="1.1">
<defs>
<linearGradient id="linear0" gradientUnits="userSpaceOnUse" x1="-0.00828098" y1="0.0765185" x2="0.57636" y2="0.784108" gradientTransform="matrix(63.570313,0,0,56.785156,0.21875,7.042969)">
<stop offset="0" style="stop-color:rgb(25.490196%,81.960784%,100%);stop-opacity:1;"/>
<stop offset="1" style="stop-color:rgb(74.117647%,20.392157%,99.607843%);stop-opacity:1;"/>
</linearGradient>
<linearGradient id="linear1" gradientUnits="userSpaceOnUse" x1="0.43376" y1="0.022418" x2="0.503159" y2="0.890299" gradientTransform="matrix(29.257812,0,0,52.902344,22.082031,0.015625)">
<stop offset="0" style="stop-color:rgb(100%,91.764706%,51.372549%);stop-opacity:1;"/>
<stop offset="0.0833333" style="stop-color:rgb(100%,86.666667%,20.784314%);stop-opacity:1;"/>
<stop offset="1" style="stop-color:rgb(100%,65.882353%,0%);stop-opacity:1;"/>
</linearGradient>
</defs>
<g id="surface1">
<path style=" stroke:none;fill-rule:nonzero;fill:url(#linear0);" d="M 63.789062 9.449219 L 33.722656 62.996094 C 33.101562 64.105469 31.507812 64.109375 30.878906 63.011719 L 0.21875 9.453125 C -0.46875 8.253906 0.5625 6.800781 1.925781 7.042969 L 32.023438 12.402344 C 32.214844 12.4375 32.410156 12.4375 32.601562 12.402344 L 62.070312 7.050781 C 63.429688 6.804688 64.460938 8.246094 63.789062 9.449219 Z M 63.789062 9.449219 "/>
<path style=" stroke:none;fill-rule:nonzero;fill:url(#linear1);" d="M 46.359375 0.015625 L 24.109375 4.359375 C 23.746094 4.429688 23.472656 4.738281 23.453125 5.109375 L 22.082031 28.132812 C 22.050781 28.675781 22.550781 29.097656 23.082031 28.972656 L 29.277344 27.550781 C 29.855469 27.417969 30.378906 27.925781 30.261719 28.507812 L 28.421875 37.484375 C 28.296875 38.085938 28.867188 38.601562 29.457031 38.425781 L 33.285156 37.265625 C 33.875 37.085938 34.445312 37.605469 34.320312 38.210938 L 31.398438 52.308594 C 31.214844 53.191406 32.390625 53.671875 32.882812 52.917969 L 33.210938 52.410156 L 51.339844 16.371094 C 51.644531 15.769531 51.121094 15.082031 50.453125 15.207031 L 44.078125 16.433594 C 43.480469 16.550781 42.96875 15.992188 43.140625 15.410156 L 47.300781 1.039062 C 47.46875 0.453125 46.957031 -0.101562 46.359375 0.015625 Z M 46.359375 0.015625 "/>
</g>
</svg>
